<svg width="20" height="20" viewBox="0 0 20 20" fill="none" xmlns="http://www.w3.org/2000/svg">
<path fill-rule="evenodd" clip-rule="evenodd" d="M10.0038 14.5871C9.86885 14.587 9.73948 14.5334 9.64405 14.438C9.54862 14.3426 9.49494 14.2132 9.49478 14.0783V12.374C9.23202 12.2064 9.05748 11.9123 9.05767 11.5783C9.05776 11.0585 9.48048 10.6358 9.99978 10.6358C10.5195 10.6359 10.9421 11.0587 10.942 11.5782C10.9417 11.9094 10.7706 12.2009 10.5124 12.3692V14.0782C10.5124 14.2141 10.4596 14.3419 10.3635 14.438C10.2674 14.5341 10.1396 14.587 10.0038 14.5871ZM14.3151 7.61108H13.6416V6.23569C13.6416 4.23438 12.0135 2.6062 10.0122 2.6062C8.01078 2.6062 6.38259 4.23438 6.38259 6.23569V7.61108H5.69188C4.68578 7.61108 3.86719 8.4297 3.86719 9.43579V15.5367C3.86719 16.5427 4.68578 17.3613 5.69188 17.3613H14.3151C15.3212 17.3613 16.1399 16.5428 16.1399 15.5367V9.43579C16.1399 8.4297 15.3213 7.61108 14.3151 7.61108ZM12.6239 6.23569V7.61108H7.40017V6.23569C7.40017 4.7955 8.57187 3.6239 10.0121 3.6239C11.4522 3.6239 12.6239 4.7955 12.6239 6.23569ZM5.69168 8.6288C5.24729 8.62929 4.88539 8.9913 4.88488 9.4356V15.5367C4.88539 15.9812 5.24738 16.3431 5.69168 16.3437H14.3151C14.7602 16.3437 15.1223 15.9817 15.1223 15.5367V9.43579C15.1223 8.99079 14.7602 8.6288 14.3151 8.6288H5.69168Z" fill="#595959"/>
</svg>
