<svg width="145" height="145" viewBox="0 0 145 145" fill="none" xmlns="http://www.w3.org/2000/svg">
<path fill-rule="evenodd" clip-rule="evenodd" d="M48.3333 10.0417C48.3333 7.83253 50.1242 6.04167 52.3333 6.04167L92.6667 6.04167C94.8758 6.04167 96.6667 7.83253 96.6667 10.0417V134.958C96.6667 137.167 94.8758 138.958 92.6667 138.958H52.3333C50.1242 138.958 48.3333 137.167 48.3333 134.958V10.0417Z" fill="#3F90FF"/>
<path fill-rule="evenodd" clip-rule="evenodd" d="M72.5 22.125C72.5 19.9159 74.2909 18.125 76.5 18.125L116.833 18.125C119.042 18.125 120.833 19.9159 120.833 22.125V122.875C120.833 125.084 119.042 126.875 116.833 126.875H76.5C74.2909 126.875 72.5 125.084 72.5 122.875V22.125Z" fill="#3F90FF" fill-opacity="0.4"/>
<path fill-rule="evenodd" clip-rule="evenodd" d="M96.6667 34.2083C96.6667 31.9992 98.4575 30.2083 100.667 30.2083L141 30.2083C143.209 30.2083 145 31.9992 145 34.2083V110.792C145 113.001 143.209 114.792 141 114.792H100.667C98.4575 114.792 96.6667 113.001 96.6667 110.792V34.2083Z" fill="#3F90FF" fill-opacity="0.2"/>
<path fill-rule="evenodd" clip-rule="evenodd" d="M0 34.2083C0 31.9992 1.79086 30.2083 4 30.2083L44.3333 30.2083C46.5425 30.2083 48.3333 31.9992 48.3333 34.2083V110.792C48.3333 113.001 46.5425 114.792 44.3333 114.792H4C1.79086 114.792 0 113.001 0 110.792V34.2083Z" fill="#3F90FF" fill-opacity="0.2"/>
<path fill-rule="evenodd" clip-rule="evenodd" d="M24.1667 22.125C24.1667 19.9159 25.9575 18.125 28.1667 18.125L68.5 18.125C70.7091 18.125 72.5 19.9159 72.5 22.125V122.875C72.5 125.084 70.7091 126.875 68.5 126.875H28.1667C25.9575 126.875 24.1667 125.084 24.1667 122.875V22.125Z" fill="#3F90FF" fill-opacity="0.4"/>
</svg>
