<svg width="48" height="48" viewBox="0 0 48 48" fill="none" xmlns="http://www.w3.org/2000/svg">
<path d="M41.6254 16.1204H40.0316C39.8113 16.1204 39.6332 15.9422 39.6332 15.7219V14.0532C39.6332 12.5625 38.4238 11.3532 36.9332 11.3532H34.6738C34.6504 11.3485 34.6176 11.3438 34.5801 11.3438H26.4801C25.7582 11.3438 25.1723 10.7579 25.1723 10.036V9.70317C25.1723 9.6188 25.1582 9.52974 25.1348 9.4313C25.2051 9.03755 25.0645 8.73755 24.7691 8.06724C24.1457 6.66567 22.7582 5.76099 21.2254 5.76099H6.37539C4.50508 5.76099 2.98633 7.27974 2.98633 9.15005V38.7282C2.98633 40.5985 4.50508 42.1172 6.37539 42.1172H41.6254C43.4957 42.1172 45.0145 41.1282 45.0145 38.7282V19.5094C45.0191 16.95 43.5004 16.1204 41.6254 16.1204ZM12.9848 30.75V19.5094C12.9848 18.9188 13.4676 18.436 14.0582 18.436H38.3863C38.4098 18.4407 38.4426 18.4454 38.4801 18.4454C38.5176 18.4454 38.5457 18.4407 38.5738 18.436H41.6348C42.2254 18.436 42.7082 18.9188 42.7082 19.5094V38.7329C42.7082 39.3235 42.2254 39.8063 41.6348 39.8063H13.777C13.3129 39.8063 12.9379 39.4079 12.9801 38.9438C12.9895 38.8454 12.9941 38.7469 12.9941 38.6485V30.8391C12.9941 30.8063 12.9895 30.7735 12.9848 30.75ZM10.6738 32.1282V39.0938C10.6738 39.4875 10.3551 39.8063 9.96133 39.8063H6.00977C5.6207 39.8063 5.30195 39.4875 5.30195 39.0985V9.15474C5.30195 8.56411 5.78477 8.0813 6.37539 8.0813H21.3707C22.0785 8.0813 22.7582 8.65317 22.8473 9.3563C22.8473 9.37505 22.852 9.3938 22.8566 9.41255C22.866 9.47817 22.8707 9.5438 22.866 9.60474C22.8613 9.63755 22.8613 9.67036 22.8613 9.69849V10.2657C22.8613 12.136 24.3801 13.6547 26.2504 13.6547H31.8848C31.9082 13.6594 31.941 13.6641 31.9785 13.6641H36.2488C36.8395 13.6641 37.3223 14.1469 37.3223 14.7375V15.6188C37.3223 15.8954 37.0973 16.1204 36.8207 16.1204H14.0582C12.1879 16.1204 10.6691 17.6391 10.6691 19.5094V32.0344C10.6691 32.0719 10.6738 32.1047 10.6738 32.1282Z" fill="#3F90FF"/>
<path d="M23.5031 29.2124C23.7281 29.428 24.0187 29.5452 24.3187 29.5452C24.6375 29.5452 24.9234 29.4233 25.1344 29.2077L26.7562 27.5858C26.8969 27.4452 27.1359 27.5436 27.1359 27.7452V34.2186C27.1359 34.903 27.6937 35.4561 28.3781 35.4046C28.9781 35.3624 29.4516 34.8608 29.4516 34.2514V27.8671C29.4516 27.628 29.7375 27.5108 29.9062 27.6796L31.4344 29.2077L31.4391 29.2124C31.6641 29.428 31.9547 29.5452 32.2547 29.5452C32.5734 29.5452 32.8547 29.428 33.075 29.2077C33.525 28.7577 33.525 28.0264 33.075 27.5717L29.1703 23.6764C28.1437 22.6499 28.3641 22.7061 27.4687 23.6014L23.4938 27.5764C23.2734 27.7967 23.1562 28.0874 23.1562 28.3921C23.1609 28.6967 23.2828 28.9874 23.5031 29.2124Z" fill="#3F90FF"/>
</svg>
