<svg width="129" height="32" viewBox="0 0 129 32" fill="none" xmlns="http://www.w3.org/2000/svg">
<path d="M39.4671 26.2351V29.7109C39.4671 30.0292 39.317 30.192 39.0203 30.192C38.961 30.1974 38.9014 30.1892 38.8457 30.1681C38.7899 30.147 38.7396 30.1135 38.6985 30.0701C38.6573 30.0267 38.6262 29.9745 38.6077 29.9173C38.5891 29.8602 38.5835 29.7995 38.5913 29.7399V25.132C38.5913 24.7016 38.7486 24.4845 39.0667 24.4845C39.193 24.4795 39.3177 24.5149 39.423 24.5856C39.5282 24.6564 39.6088 24.759 39.653 24.8788L41.8088 28.3546V24.962C41.7998 24.8968 41.8059 24.8304 41.8266 24.7681C41.8474 24.7057 41.8822 24.6491 41.9284 24.6028C41.9745 24.5565 42.0307 24.5216 42.0925 24.5011C42.1543 24.4806 42.2199 24.4749 42.2843 24.4845C42.581 24.4845 42.7311 24.6437 42.7311 24.962V29.5409C42.7311 29.975 42.5738 30.192 42.2557 30.192C42.1427 30.184 42.0333 30.149 41.9363 30.0899C41.8394 30.0308 41.7577 29.9493 41.698 29.852L39.4671 26.2351Z" fill="#3D79EF"/>
<path d="M47.2925 27.6489V29.2295H49.5805C49.9333 29.2102 50.1013 29.3512 50.0846 29.6527C50.0846 29.9348 49.9344 30.0686 49.5805 30.0505H46.8993C46.5418 30.0505 46.3702 29.8986 46.3702 29.5984V25.1316C46.3308 24.7699 46.5275 24.5854 46.9565 24.6252H49.5555C49.913 24.6252 50.1025 24.7482 50.0846 25.0484C50.0667 25.3486 49.9273 25.4715 49.5555 25.4715H47.2925V26.8279H49.3589C49.7164 26.8279 49.9058 26.9689 49.888 27.251C49.8701 27.5332 49.7307 27.667 49.3589 27.6489H47.2925Z" fill="#3D79EF"/>
<path d="M55.0355 29.7106V25.5295H53.8343C53.4446 25.5295 53.2587 25.3956 53.2766 25.0774C53.2944 24.7591 53.4625 24.6252 53.8343 24.6252H57.1805C57.538 24.6252 57.7096 24.7735 57.7096 25.0774C57.7096 25.3812 57.5309 25.5295 57.1805 25.5295H55.9507V29.7106C55.9507 30.0506 55.8005 30.2097 55.5038 30.1916C55.4398 30.1994 55.3749 30.1922 55.3141 30.1707C55.2533 30.1491 55.1982 30.1138 55.153 30.0674C55.1078 30.0209 55.0737 29.9646 55.0533 29.9028C55.0329 29.8409 55.0268 29.7752 55.0355 29.7106Z" fill="#3D79EF"/>
<path d="M61.8648 27.6489V29.2295H64.1528C64.5079 29.2102 64.6759 29.3512 64.6569 29.6527C64.6748 29.9348 64.5067 30.0686 64.1528 30.0505H61.4715C61.114 30.0505 60.9424 29.8986 60.9424 29.5984V25.1316C60.9031 24.7699 61.0997 24.5854 61.5287 24.6252H64.1278C64.4853 24.6252 64.6748 24.7482 64.6569 25.0484C64.639 25.3486 64.4996 25.4715 64.1278 25.4715H61.8648V26.8279H63.9311C64.2887 26.8279 64.4781 26.9689 64.4603 27.251C64.4424 27.5332 64.303 27.667 63.9311 27.6489H61.8648Z" fill="#3D79EF"/>
<path d="M69.2227 28.6365L68.7186 29.8229C68.6968 29.9365 68.6328 30.0374 68.5396 30.1047C68.4465 30.172 68.3314 30.2006 68.2181 30.1846C67.8606 30.1448 67.7426 29.9205 67.8606 29.5046L69.809 24.9365C69.8351 24.7988 69.9112 24.676 70.0224 24.5923C70.1336 24.5086 70.2717 24.4701 70.4096 24.4844C70.6706 24.4627 70.8636 24.6146 70.9959 24.9365L72.8942 29.5118C72.9872 29.9278 72.8585 30.152 72.5046 30.1918C72.3956 30.1975 72.2877 30.1674 72.1969 30.1062C72.1061 30.045 72.0372 29.9558 72.0005 29.8518L71.525 28.6365H69.2227ZM71.1782 27.7902L70.4096 25.8407L69.573 27.7902H71.1782Z" fill="#3D79EF"/>
<path d="M78.0436 24.4845C78.3519 24.4653 78.6608 24.5078 78.9528 24.6096C79.2448 24.7114 79.5141 24.8704 79.7453 25.0776C79.8058 25.1237 79.855 25.1832 79.8891 25.2515C79.9232 25.3199 79.9413 25.3953 79.9419 25.4719C79.938 25.5498 79.9124 25.6251 79.8682 25.6891C79.8239 25.753 79.7628 25.8031 79.6917 25.8336C79.5942 25.8783 79.4853 25.8913 79.3802 25.8705C79.2752 25.8498 79.1791 25.7964 79.1054 25.7178C78.9629 25.5811 78.7942 25.4756 78.6097 25.4078C78.4252 25.3399 78.2288 25.3113 78.0329 25.3236C77.3429 25.3597 76.9604 25.6057 76.9425 26.0469C76.9067 26.4086 77.3786 26.669 78.3725 26.839C79.47 27.085 80.0385 27.6384 80.0742 28.5064C80.0563 29.5915 79.3592 30.1521 77.9507 30.1738C77.5872 30.186 77.2256 30.116 76.8923 29.969C76.559 29.8219 76.2622 29.6015 76.0237 29.3238C75.9682 29.2352 75.9462 29.1292 75.962 29.0254C75.9778 28.9217 76.0302 28.8273 76.1095 28.7596C76.1567 28.7143 76.2124 28.679 76.2733 28.6559C76.3342 28.6328 76.3991 28.6222 76.4641 28.6249C76.5291 28.6276 76.5929 28.6435 76.6518 28.6716C76.7106 28.6997 76.7633 28.7395 76.8066 28.7885C76.9478 28.9582 77.1225 29.0961 77.3196 29.1932C77.5166 29.2904 77.7316 29.3448 77.9507 29.3528C78.7324 29.3335 79.1328 29.0514 79.1519 28.5064C79.1519 28.0555 78.705 27.7541 77.8112 27.6022C76.6196 27.3611 76.0237 26.8427 76.0237 26.0469C76.1214 25.0656 76.7947 24.5447 78.0436 24.4845Z" fill="#3D79EF"/>
<path d="M84.3484 27.6489V29.2295H86.64C86.9975 29.2114 87.1619 29.3525 87.1405 29.6527C87.119 29.9529 86.9939 30.0686 86.64 30.0505H83.9587C83.6012 30.0505 83.426 29.8986 83.426 29.5984V25.1316C83.3903 24.7699 83.5869 24.5854 84.0123 24.6252H86.6114C86.9689 24.6252 87.1619 24.7482 87.1405 25.0484C87.119 25.3486 86.9832 25.4715 86.6114 25.4715H84.3484V26.8279H86.4147C86.7722 26.8279 86.9653 26.9689 86.9474 27.251C86.9295 27.5332 86.7865 27.667 86.4147 27.6489H84.3484Z" fill="#3D79EF"/>
<path d="M96.0187 27.3379C96.0759 28.6183 96.5943 29.2946 97.5845 29.3706C97.8263 29.3622 98.0605 29.2828 98.2586 29.1422C98.4566 29.0016 98.61 28.8057 98.6999 28.5785C98.8501 28.2964 99.0074 28.1661 99.1754 28.1842C99.5329 28.2602 99.6974 28.4483 99.6223 28.7485C99.4736 29.1741 99.1973 29.5422 98.8321 29.8015C98.4668 30.0608 98.0307 30.1985 97.5845 30.1952C96.002 30.1181 95.1678 29.1668 95.082 27.3415C95.1917 25.5692 96.0258 24.618 97.5845 24.4878C98.4783 24.524 99.1027 24.8627 99.4578 25.5041C99.5508 25.8658 99.4114 26.0684 99.0396 26.1262C98.9459 26.129 98.8535 26.1037 98.774 26.0535C98.6945 26.0033 98.6314 25.9305 98.5927 25.8441C98.488 25.6728 98.3382 25.5344 98.1602 25.4443C97.9821 25.3543 97.7828 25.3161 97.5845 25.3341C96.6264 25.4451 96.1045 26.113 96.0187 27.3379Z" fill="#3D79EF"/>
<path d="M103.871 27.649V29.7396C103.871 30.0398 103.71 30.1917 103.395 30.1917C103.334 30.2019 103.271 30.1974 103.211 30.1785C103.152 30.1596 103.098 30.1268 103.053 30.0828C103.009 30.0388 102.975 29.9848 102.955 29.9252C102.935 29.8655 102.929 29.802 102.937 29.7396V24.9617C102.937 24.6253 103.066 24.4626 103.384 24.4843C103.703 24.506 103.86 24.6253 103.86 24.9617V26.7991H106.262V24.9617C106.253 24.8969 106.259 24.8309 106.28 24.7688C106.301 24.7068 106.335 24.6504 106.381 24.6042C106.427 24.5579 106.482 24.523 106.544 24.5022C106.605 24.4814 106.67 24.4752 106.734 24.4843C107.07 24.4626 107.228 24.6253 107.21 24.9617V29.7106C107.21 30.0506 107.052 30.2098 106.734 30.1917C106.416 30.1736 106.262 30.0506 106.262 29.7106V27.649H103.871Z" fill="#3D79EF"/>
<path d="M111.875 28.6364L111.371 29.8227C111.349 29.9364 111.285 30.0372 111.192 30.1045C111.099 30.1718 110.984 30.2004 110.87 30.1844C110.513 30.1446 110.395 29.9204 110.513 29.5044L112.468 24.9363C112.494 24.8013 112.568 24.6807 112.677 24.5973C112.785 24.514 112.919 24.4737 113.055 24.4842C113.316 24.4625 113.509 24.6144 113.641 24.9363L115.539 29.5117C115.632 29.9276 115.504 30.1519 115.15 30.1916C115.041 30.1973 114.933 30.1673 114.842 30.1061C114.751 30.0448 114.682 29.9556 114.646 29.8516L114.17 28.6364H111.875ZM113.831 27.79L113.055 25.8405L112.233 27.79H113.831Z" fill="#3D79EF"/>
<path d="M118.974 29.6817V25.0196C118.956 24.6579 119.113 24.4626 119.45 24.4843C119.786 24.506 119.914 24.6434 119.896 25.0196V29.6817C119.896 30.0217 119.746 30.1917 119.45 30.1917C119.153 30.1917 118.974 30.0217 118.974 29.6817Z" fill="#3D79EF"/>
<path d="M124.604 26.2351V29.7109C124.604 30.0292 124.454 30.192 124.158 30.192C124.097 30.2003 124.035 30.1944 123.977 30.1747C123.919 30.1549 123.867 30.1218 123.823 30.0781C123.78 30.0343 123.747 29.981 123.728 29.9223C123.708 29.8636 123.702 29.8012 123.711 29.7399V25.132C123.711 24.7016 123.868 24.4845 124.186 24.4845C124.312 24.48 124.437 24.5156 124.542 24.5863C124.647 24.6571 124.728 24.7593 124.772 24.8788L126.95 28.3546V24.962C126.941 24.8968 126.947 24.8304 126.967 24.7681C126.988 24.7057 127.023 24.6491 127.069 24.6028C127.115 24.5565 127.172 24.5216 127.233 24.5011C127.295 24.4806 127.361 24.4749 127.425 24.4845C127.722 24.4845 127.872 24.6437 127.872 24.962V29.5409C127.872 29.975 127.715 30.192 127.397 30.192C127.284 30.184 127.174 30.149 127.077 30.0899C126.98 30.0308 126.899 29.9493 126.839 29.852L124.604 26.2351Z" fill="#3D79EF"/>
<path d="M60.5766 10.5051C60.6445 10.3424 60.7088 10.1651 60.7768 9.99153H71.1437C71.2385 9.99153 71.3294 9.95343 71.3964 9.8856C71.4635 9.81777 71.5011 9.72577 71.5011 9.62985V3.33288C71.5011 3.23695 71.4635 3.14496 71.3964 3.07713C71.3294 3.0093 71.2385 2.97119 71.1437 2.97119H58.135C58.0402 2.97119 57.9493 3.0093 57.8822 3.07713C57.8152 3.14496 57.7775 3.23695 57.7775 3.33288V9.63346C57.7775 9.72939 57.8152 9.82139 57.8822 9.88921C57.9493 9.95704 58.0402 9.99515 58.135 9.99515H59.2467C59.0752 10.4473 58.8714 10.9211 58.6426 11.4166C58.4138 11.9121 58.1636 12.4112 57.8919 12.914C57.6202 13.4167 57.3342 13.905 57.034 14.3896C56.8624 14.6681 56.6765 14.9358 56.5192 15.1962C56.4853 15.251 56.4666 15.314 56.465 15.3786C56.4633 15.4432 56.4788 15.5071 56.5098 15.5636C56.5409 15.62 56.5863 15.6671 56.6413 15.6998C56.6964 15.7325 56.7592 15.7497 56.823 15.7496H57.4701C57.5268 15.7493 57.5826 15.7354 57.633 15.709C57.6833 15.6826 57.7267 15.6444 57.7596 15.5977C58.0778 15.1492 58.5461 14.4475 58.8321 14.0063C59.1181 13.565 59.2968 13.2033 59.522 12.7765H62.1137C61.5839 14.0963 60.9265 15.3599 60.1512 16.5489C59.5351 17.4918 58.8454 18.3832 58.0885 19.2146C58.0446 19.2664 58.0162 19.3297 58.0064 19.3973C57.9966 19.4648 58.0058 19.5337 58.0331 19.5961C58.0604 19.6586 58.1046 19.7119 58.1606 19.75C58.2166 19.788 58.2821 19.8093 58.3495 19.8113H58.9643C59.0125 19.8111 59.0601 19.8011 59.1043 19.7819C59.1486 19.7626 59.1885 19.7345 59.2217 19.6992C59.64 19.2507 60.2942 18.4948 60.6516 17.9993C61.0091 17.5038 61.4524 16.8853 61.8313 16.2777C62.2102 15.67 62.5463 15.0009 62.8823 14.3499C63.1433 13.8182 63.3685 13.2937 63.5722 12.7729H66.3963C66.0497 14.0619 65.5705 15.3105 64.9664 16.4983C64.4671 17.4641 63.8782 18.3796 63.2076 19.2326C63.1691 19.2859 63.1458 19.3488 63.14 19.4145C63.1343 19.4802 63.1465 19.5462 63.1752 19.6055C63.2039 19.6647 63.2481 19.7148 63.303 19.7505C63.3578 19.7861 63.4213 19.8059 63.4865 19.8077H64.2014C64.2548 19.8079 64.3076 19.796 64.3558 19.7728C64.4041 19.7497 64.4466 19.7159 64.4802 19.6739C65.2984 18.608 66.0108 17.4631 66.6072 16.256C67.1316 15.1337 67.5574 13.967 67.8799 12.7693H69.9532C70.0481 12.7693 70.139 12.8074 70.206 12.8752C70.2731 12.9431 70.3107 13.0351 70.3107 13.131V16.7261C70.3178 17.3087 70.2134 17.8872 70.0033 18.4297C69.8913 18.7222 69.7474 19.0013 69.5743 19.2616C69.5417 19.3158 69.5237 19.3777 69.5222 19.4412C69.5207 19.5046 69.5358 19.5674 69.5659 19.6231C69.5959 19.6788 69.64 19.7255 69.6935 19.7586C69.7471 19.7916 69.8083 19.8098 69.871 19.8113H70.6611C70.7085 19.8124 70.7557 19.8033 70.7995 19.7846C70.8432 19.7659 70.8825 19.738 70.9149 19.7028C71.2902 19.2338 71.5423 18.6764 71.6477 18.0825C71.774 17.5187 71.8375 16.9425 71.8372 16.3645V11.7204C71.8372 11.6245 71.7995 11.5325 71.7325 11.4646C71.6654 11.3968 71.5745 11.3587 71.4797 11.3587H60.1941C60.3299 11.073 60.4586 10.7872 60.5766 10.5051ZM69.9747 4.71814V5.46321C69.9747 5.51071 69.9654 5.55774 69.9475 5.60163C69.9295 5.64551 69.9032 5.68538 69.87 5.71897C69.8368 5.75255 69.7974 5.77919 69.754 5.79737C69.7106 5.81555 69.6642 5.8249 69.6172 5.8249H59.6364C59.5416 5.8249 59.4507 5.78679 59.3836 5.71897C59.3166 5.65114 59.2789 5.55914 59.2789 5.46321V4.71091C59.2789 4.61498 59.3166 4.52298 59.3836 4.45515C59.4507 4.38732 59.5416 4.34922 59.6364 4.34922H69.6172C69.712 4.34922 69.8029 4.38732 69.87 4.45515C69.937 4.52298 69.9747 4.61498 69.9747 4.71091V4.71814ZM69.9747 7.52121V8.26629C69.9747 8.36221 69.937 8.45421 69.87 8.52204C69.8029 8.58987 69.712 8.62797 69.6172 8.62797H59.6364C59.5416 8.62797 59.4507 8.58987 59.3836 8.52204C59.3166 8.45421 59.2789 8.36221 59.2789 8.26629V7.51398C59.2789 7.41805 59.3166 7.32606 59.3836 7.25823C59.4507 7.1904 59.5416 7.15229 59.6364 7.15229H69.6172C69.712 7.15229 69.8029 7.1904 69.87 7.25823C69.937 7.32606 69.9747 7.41805 69.9747 7.51398V7.52121Z" fill="#3D79EF"/>
<path d="M107.586 4.2549H103.532V2.92028C103.532 2.82436 103.495 2.73236 103.427 2.66453C103.36 2.5967 103.269 2.55859 103.175 2.55859H102.36C102.265 2.55859 102.174 2.5967 102.107 2.66453C102.04 2.73236 102.002 2.82436 102.002 2.92028V4.2549H98.5093C98.4144 4.2549 98.3235 4.29301 98.2565 4.36084C98.1894 4.42867 98.1518 4.52067 98.1518 4.61659V5.33997C98.1518 5.43589 98.1894 5.52789 98.2565 5.59572C98.3235 5.66355 98.4144 5.70165 98.5093 5.70165H102.002V10.2517H98.1446C98.0498 10.2517 97.9589 10.2898 97.8918 10.3576C97.8248 10.4254 97.7871 10.5174 97.7871 10.6134V11.3367C97.7871 11.4327 97.8248 11.5247 97.8918 11.5925C97.9589 11.6603 98.0498 11.6984 98.1446 11.6984H101.952C101.848 12.3712 101.669 13.03 101.419 13.6624C101.144 14.3691 100.815 15.0535 100.436 15.7095C100.034 16.4237 99.5885 17.1122 99.1027 17.7711C98.7452 18.2667 98.3877 18.7513 98.0302 19.2179C97.9909 19.2709 97.9667 19.3338 97.9603 19.3998C97.9539 19.4657 97.9655 19.5322 97.994 19.5919C98.0224 19.6516 98.0664 19.7023 98.1214 19.7384C98.1763 19.7745 98.24 19.7946 98.3055 19.7966H99.2314C99.2822 19.7965 99.3323 19.7855 99.3786 19.7643C99.4248 19.7431 99.466 19.7122 99.4995 19.6736C100.336 18.66 101.078 17.5703 101.716 16.4184C102.275 15.4143 102.728 14.3536 103.067 13.2537C103.611 14.4593 104.178 15.6046 104.769 16.6897C105.336 17.7421 106.005 18.7354 106.764 19.6555C106.798 19.6952 106.839 19.7271 106.886 19.749C106.933 19.7708 106.984 19.7821 107.036 19.7821H108.301C108.367 19.7806 108.432 19.7606 108.487 19.7244C108.543 19.6881 108.587 19.6369 108.616 19.5766C108.644 19.5162 108.656 19.4491 108.649 19.3826C108.642 19.3161 108.617 19.2528 108.577 19.1998C107.74 18.177 106.986 17.0885 106.321 15.9446C105.649 14.7583 105.017 13.5406 104.426 12.2916C104.397 12.2313 104.351 12.1804 104.295 12.1446C104.239 12.1088 104.174 12.0896 104.108 12.089H103.393C103.428 11.9425 103.454 11.7939 103.471 11.6442H108.623C108.718 11.6442 108.809 11.6061 108.876 11.5382C108.943 11.4704 108.981 11.3784 108.981 11.2825V10.5591C108.981 10.4632 108.943 10.3712 108.876 10.3034C108.809 10.2355 108.718 10.1974 108.623 10.1974H107.944V4.61298C107.943 4.51768 107.905 4.42661 107.838 4.35956C107.771 4.29251 107.68 4.2549 107.586 4.2549ZM103.532 10.2517V5.68718H106.06C106.155 5.68718 106.245 5.72529 106.313 5.79312C106.38 5.86095 106.417 5.95295 106.417 6.04887V10.2517H103.532Z" fill="#3D79EF"/>
<path d="M97.7676 17.2901V16.6174C97.7685 16.5639 97.7576 16.5108 97.7357 16.4621C97.7139 16.4133 97.6816 16.3701 97.6413 16.3355C97.6009 16.3009 97.5535 16.2758 97.5024 16.262C97.4513 16.2482 97.3978 16.246 97.3457 16.2557L95.6476 16.5884V8.07432H97.5066C97.6014 8.07432 97.6924 8.03621 97.7594 7.96838C97.8265 7.90055 97.8641 7.80856 97.8641 7.71263V6.98926C97.8641 6.89333 97.8265 6.80134 97.7594 6.73351C97.6924 6.66568 97.6014 6.62757 97.5066 6.62757H95.6476V2.92028C95.6476 2.82436 95.6099 2.73236 95.5429 2.66453C95.4759 2.5967 95.3849 2.55859 95.2901 2.55859H94.475C94.3802 2.55859 94.2893 2.5967 94.2222 2.66453C94.1552 2.73236 94.1175 2.82436 94.1175 2.92028V6.62395H92.2227C92.1279 6.62395 92.037 6.66206 91.9699 6.72989C91.9029 6.79772 91.8652 6.88972 91.8652 6.98564V7.70902C91.8652 7.80494 91.9029 7.89694 91.9699 7.96477C92.037 8.0326 92.1279 8.0707 92.2227 8.0707H94.1175V16.8742L92.1584 17.2358C92.0758 17.252 92.0014 17.2971 91.9484 17.3633C91.8955 17.4295 91.8673 17.5124 91.8688 17.5975V18.2667C91.868 18.3198 91.8789 18.3725 91.9005 18.4209C91.9221 18.4693 91.9541 18.5123 91.994 18.5469C92.0339 18.5814 92.0809 18.6066 92.1316 18.6207C92.1822 18.6348 92.2353 18.6374 92.2871 18.6283L97.4709 17.6482C97.5542 17.6336 97.6297 17.5897 97.6841 17.5241C97.7384 17.4586 97.768 17.3756 97.7676 17.2901Z" fill="#3D79EF"/>
<path d="M124.15 18.0643H124.905C124.999 18.0643 125.09 18.0262 125.157 17.9584C125.224 17.8906 125.262 17.7986 125.262 17.7026V14.5306H127.489C127.584 14.5306 127.675 14.4925 127.742 14.4247C127.809 14.3569 127.847 14.2649 127.847 14.169V13.4456C127.847 13.3496 127.809 13.2577 127.742 13.1898C127.675 13.122 127.584 13.0839 127.489 13.0839H125.262V10.5051H127.378C127.473 10.5051 127.564 10.467 127.631 10.3991C127.698 10.3313 127.736 10.2393 127.736 10.1434V9.42C127.736 9.32407 127.698 9.23208 127.631 9.16425C127.564 9.09642 127.473 9.05831 127.378 9.05831H125.262V6.5265C125.262 6.43058 125.224 6.33858 125.157 6.27075C125.09 6.20292 124.999 6.16482 124.905 6.16482H124.15C124.055 6.16482 123.964 6.20292 123.897 6.27075C123.83 6.33858 123.793 6.43058 123.793 6.5265V9.05831H122.434C122.38 9.05953 122.327 9.04837 122.277 9.02564C122.228 9.00292 122.185 8.96924 122.151 8.92713C122.116 8.88501 122.092 8.83556 122.079 8.78248C122.066 8.72941 122.065 8.67409 122.077 8.62067C122.195 8.09261 122.298 7.58625 122.388 7.1052C122.477 6.62416 122.559 6.0961 122.642 5.5825H127.479C127.573 5.5825 127.664 5.5444 127.731 5.47657C127.798 5.40874 127.836 5.31674 127.836 5.22081V4.49744C127.836 4.40152 127.798 4.30952 127.731 4.24169C127.664 4.17386 127.573 4.13575 127.479 4.13575H122.863L123.003 2.95665C123.008 2.90592 123.003 2.85458 122.988 2.806C122.972 2.75742 122.947 2.71269 122.913 2.67477C122.879 2.63685 122.838 2.60659 122.792 2.58598C122.745 2.56537 122.696 2.55487 122.645 2.55518H121.823C121.734 2.55473 121.648 2.58783 121.582 2.64803C121.516 2.70822 121.474 2.79117 121.465 2.8807L121.347 4.13575H120.368C120.273 4.13575 120.182 4.17386 120.115 4.24169C120.048 4.30952 120.01 4.40152 120.01 4.49744V5.22081C120.01 5.31674 120.048 5.40874 120.115 5.47657C120.182 5.5444 120.273 5.5825 120.368 5.5825H121.183C121.083 6.32275 120.949 7.07868 120.782 7.85028C120.644 8.50614 120.474 9.23795 120.271 10.0457C120.258 10.0999 120.257 10.1564 120.269 10.2109C120.281 10.2654 120.305 10.3163 120.34 10.3597C120.375 10.4032 120.419 10.4379 120.469 10.4612C120.519 10.4846 120.574 10.4958 120.629 10.4942H123.8V13.0658H120.289C120.194 13.0658 120.103 13.1039 120.036 13.1717C119.969 13.2396 119.932 13.3316 119.932 13.4275V14.1509C119.932 14.2468 119.969 14.3388 120.036 14.4066C120.103 14.4744 120.194 14.5126 120.289 14.5126H123.8V17.7026C123.8 17.7973 123.836 17.8882 123.902 17.9559C123.967 18.0235 124.057 18.0624 124.15 18.0643Z" fill="#3D79EF"/>
<path d="M112.232 7.40168C112.308 7.40138 112.382 7.37668 112.443 7.33117C112.504 7.28566 112.549 7.22169 112.572 7.1485C112.665 6.84468 112.787 6.42512 112.844 6.21173C112.901 5.99833 112.933 5.85004 112.976 5.6692H116.43C116.524 5.6692 116.615 5.63109 116.682 5.56326C116.749 5.49543 116.787 5.40344 116.787 5.30751V4.58414C116.787 4.48821 116.749 4.39622 116.682 4.32839C116.615 4.26056 116.524 4.22245 116.43 4.22245H113.273L113.412 3.39419C113.434 3.24951 113.455 3.10845 113.469 2.96378C113.474 2.91333 113.469 2.86238 113.453 2.81424C113.438 2.76609 113.412 2.72183 113.378 2.68431C113.345 2.64679 113.303 2.61687 113.258 2.59647C113.212 2.57608 113.162 2.56567 113.112 2.56592H112.286C112.198 2.56538 112.112 2.59798 112.046 2.65743C111.98 2.71687 111.938 2.79895 111.929 2.88783C111.864 3.6338 111.757 4.37532 111.607 5.10858C111.471 5.72007 111.303 6.32375 111.103 6.91702C111.085 6.97122 111.08 7.02898 111.088 7.08558C111.096 7.14217 111.117 7.19597 111.15 7.24257C111.183 7.28917 111.226 7.32723 111.276 7.35363C111.327 7.38003 111.382 7.39402 111.439 7.39444L112.232 7.40168Z" fill="#3D79EF"/>
<path d="M117.752 4.82307C117.823 5.19199 117.898 5.58984 117.977 6.01663C117.993 6.10023 118.038 6.17544 118.103 6.22903C118.168 6.28262 118.25 6.31115 118.335 6.3096H119.707C119.607 5.78154 119.436 4.92434 119.328 4.45415C119.243 4.07076 119.146 3.68375 119.042 3.29675C119.021 3.21852 118.974 3.14993 118.909 3.10203C118.844 3.05413 118.765 3.02972 118.685 3.03272H117.784C117.729 3.03108 117.674 3.04237 117.624 3.0657C117.574 3.08903 117.53 3.12377 117.495 3.1672C117.461 3.21063 117.436 3.26158 117.424 3.31605C117.413 3.37053 117.413 3.42705 117.427 3.48121C117.559 3.95864 117.687 4.49032 117.752 4.82307Z" fill="#3D79EF"/>
<path d="M127.624 18.3065H119.173C119.124 18.3066 119.076 18.2966 119.031 18.2771C118.986 18.2576 118.946 18.229 118.912 18.193C118.879 18.1571 118.853 18.1146 118.836 18.0682C118.82 18.0218 118.812 17.9724 118.815 17.9231L119.473 7.53549C119.476 7.4862 119.469 7.43682 119.452 7.3904C119.436 7.34399 119.41 7.30151 119.376 7.26559C119.343 7.22967 119.302 7.20107 119.258 7.18155C119.213 7.16203 119.164 7.15201 119.116 7.1521H117.06C116.965 7.1521 116.874 7.19021 116.807 7.25804C116.74 7.32586 116.703 7.41786 116.703 7.51379V7.96228H111.473C111.378 7.96228 111.287 8.00039 111.22 8.06821C111.153 8.13604 111.115 8.22804 111.115 8.32397V9.04734C111.115 9.14326 111.153 9.23526 111.22 9.30309C111.287 9.37092 111.378 9.40903 111.473 9.40903H113.031V11.9625H111.305C111.21 11.9625 111.119 12.0006 111.052 12.0685C110.985 12.1363 110.947 12.2283 110.947 12.3242V13.0476C110.947 13.1435 110.985 13.2355 111.052 13.3033C111.119 13.3712 111.21 13.4093 111.305 13.4093H113.031V19.4531C113.031 19.549 113.069 19.641 113.136 19.7088C113.203 19.7767 113.294 19.8148 113.389 19.8148H116.377C116.472 19.8148 116.563 19.7767 116.63 19.7088C116.697 19.641 116.735 19.549 116.735 19.4531V18.7008C116.735 18.6048 116.697 18.5128 116.63 18.445C116.563 18.3772 116.472 18.3391 116.377 18.3391H114.912C114.817 18.3391 114.726 18.301 114.659 18.2331C114.592 18.1653 114.554 18.0733 114.554 17.9774V13.3984H116.413C116.508 13.3984 116.599 13.3603 116.666 13.2925C116.733 13.2247 116.771 13.1327 116.771 13.0367V12.3134C116.771 12.2174 116.733 12.1255 116.666 12.0576C116.599 11.9898 116.508 11.9517 116.413 11.9517H114.554V9.38371H116.431C116.526 9.38371 116.617 9.3456 116.684 9.27777C116.751 9.20994 116.788 9.11795 116.788 9.02202V8.588H117.907L117.239 19.4314C117.236 19.4807 117.243 19.53 117.26 19.5765C117.276 19.6229 117.302 19.6653 117.336 19.7013C117.369 19.7372 117.41 19.7658 117.454 19.7853C117.499 19.8048 117.548 19.8148 117.596 19.8148H127.645C127.74 19.8148 127.831 19.7767 127.898 19.7088C127.965 19.641 128.003 19.549 128.003 19.4531V18.6646C128.002 18.6155 127.992 18.567 127.972 18.5221C127.953 18.4772 127.925 18.4367 127.889 18.4032C127.854 18.3697 127.812 18.3439 127.766 18.3273C127.721 18.3106 127.672 18.3036 127.624 18.3065Z" fill="#3D79EF"/>
<path d="M45.9048 18.18H45.0718C44.9989 18.1792 44.928 18.156 44.8686 18.1133C44.8092 18.0706 44.7641 18.0106 44.7393 17.9413L42.4727 11.6588L40.6852 5.60054C40.67 5.54567 40.6678 5.48794 40.6788 5.43204C40.6897 5.37614 40.7136 5.32366 40.7485 5.27888C40.7833 5.2341 40.8282 5.19829 40.8793 5.17436C40.9304 5.15043 40.9864 5.13907 41.0427 5.1412H41.8864C41.9657 5.13777 42.0439 5.16115 42.1087 5.20764C42.1734 5.25414 42.221 5.32111 42.2439 5.398L44.0851 11.6588L46.2372 17.7026C46.2552 17.7565 46.2604 17.8139 46.2524 17.8703C46.2443 17.9266 46.2232 17.9802 46.1908 18.0267C46.1584 18.0732 46.1156 18.1113 46.0659 18.138C46.0162 18.1646 45.961 18.179 45.9048 18.18Z" fill="#3D79EF"/>
<path d="M40.8588 18.18H41.6882C41.761 18.1792 41.8319 18.156 41.8913 18.1133C41.9508 18.0706 41.9959 18.0106 42.0206 17.9413L44.2872 11.6588L46.0747 5.60054C46.09 5.54567 46.0922 5.48794 46.0812 5.43204C46.0702 5.37614 46.0463 5.32366 46.0114 5.27888C45.9766 5.2341 45.9318 5.19829 45.8806 5.17436C45.8295 5.15043 45.7735 5.13907 45.7172 5.1412H44.8699C44.7906 5.13777 44.7124 5.16115 44.6477 5.20764C44.583 5.25414 44.5354 5.32111 44.5124 5.398L42.6713 11.6588L40.5227 17.7026C40.5046 17.7568 40.4995 17.8146 40.5077 17.8711C40.516 17.9277 40.5374 17.9815 40.5702 18.0281C40.603 18.0747 40.6463 18.1128 40.6964 18.1392C40.7466 18.1656 40.8022 18.1796 40.8588 18.18Z" fill="#3D79EF"/>
<path d="M51.616 18.1799H50.783C50.7101 18.1792 50.6392 18.1559 50.5798 18.1132C50.5204 18.0706 50.4753 18.0105 50.4505 17.9412L48.1875 11.6587L46.4 5.60046C46.3852 5.54707 46.3827 5.49096 46.3928 5.43646C46.4028 5.38196 46.4251 5.33052 46.4579 5.28612C46.4908 5.24173 46.5332 5.20556 46.5821 5.18042C46.6309 5.15527 46.6848 5.14183 46.7396 5.14111H47.5833C47.6596 5.14166 47.7337 5.16687 47.7948 5.21308C47.8559 5.25928 47.9008 5.32405 47.923 5.39791L49.7641 11.6587L51.9484 17.7025C51.9664 17.7564 51.9716 17.8139 51.9636 17.8702C51.9555 17.9265 51.9344 17.9801 51.902 18.0266C51.8696 18.0731 51.8268 18.1113 51.7771 18.1379C51.7274 18.1645 51.6722 18.1789 51.616 18.1799Z" fill="#3D79EF"/>
<path d="M46.57 18.1799H47.3995C47.4723 18.1792 47.5432 18.1559 47.6026 18.1132C47.662 18.0706 47.7072 18.0105 47.7319 17.9412L49.9985 11.6587L51.786 5.60046C51.8008 5.54707 51.8033 5.49096 51.7932 5.43646C51.7832 5.38196 51.7609 5.33052 51.7281 5.28612C51.6952 5.24173 51.6528 5.20556 51.6039 5.18042C51.5551 5.15527 51.5012 5.14183 51.4464 5.14111H50.5991C50.5228 5.14166 50.4487 5.16687 50.3876 5.21308C50.3265 5.25928 50.2816 5.32405 50.2595 5.39791L48.4183 11.6587L46.2376 17.7025C46.2196 17.7564 46.2144 17.8139 46.2224 17.8702C46.2305 17.9265 46.2516 17.9801 46.284 18.0266C46.3164 18.0731 46.3592 18.1113 46.4089 18.1379C46.4586 18.1645 46.5138 18.1789 46.57 18.1799Z" fill="#3D79EF"/>
<path d="M40.4427 4.35284H51.882C51.9768 4.35284 52.0677 4.39094 52.1348 4.45877C52.2018 4.5266 52.2395 4.6186 52.2395 4.71452C52.2395 6.63508 52.3288 15.7677 52.1108 17.0336C51.9291 17.8461 51.5618 18.6042 51.0383 19.2471C50.9997 19.3006 50.9763 19.3638 50.9707 19.4298C50.9652 19.4958 50.9776 19.5621 51.0068 19.6215C51.0359 19.6808 51.0806 19.7309 51.136 19.7663C51.1913 19.8017 51.2553 19.821 51.3207 19.8222H52.1143C52.168 19.8219 52.221 19.8094 52.2693 19.7857C52.3175 19.7619 52.3599 19.7274 52.3932 19.6847C52.9507 18.9831 53.3354 18.1575 53.5157 17.2759C53.7838 15.7098 53.6622 12.8235 53.6587 12.7223V3.33288C53.6587 3.23695 53.621 3.14496 53.554 3.07713C53.4869 3.0093 53.396 2.97119 53.3012 2.97119H39.002C38.9072 2.97119 38.8163 3.0093 38.7492 3.07713C38.6822 3.14496 38.6445 3.23695 38.6445 3.33288V19.4533C38.6445 19.5492 38.6822 19.6412 38.7492 19.709C38.8163 19.7768 38.9072 19.815 39.002 19.815H39.717C39.8118 19.815 39.9027 19.7768 39.9697 19.709C40.0368 19.6412 40.0744 19.5492 40.0744 19.4533V4.71091C40.0749 4.66279 40.0848 4.61524 40.1037 4.57106C40.1225 4.52688 40.1499 4.48694 40.1842 4.45359C40.2185 4.42025 40.259 4.39416 40.3034 4.37686C40.3478 4.35956 40.3951 4.35139 40.4427 4.35284Z" fill="#3D79EF"/>
<path d="M75.2852 3.3363V19.4531C75.2852 19.549 75.3228 19.641 75.3899 19.7088C75.4569 19.7766 75.5478 19.8147 75.6426 19.8147H90.0026C90.0974 19.8147 90.1883 19.7766 90.2553 19.7088C90.3224 19.641 90.36 19.549 90.36 19.4531V18.7297C90.36 18.6338 90.3224 18.5418 90.2553 18.4739C90.1883 18.4061 90.0974 18.368 90.0026 18.368H77.1977C77.1029 18.368 77.0119 18.3299 76.9449 18.2621C76.8779 18.1942 76.8402 18.1022 76.8402 18.0063V4.80836C76.8402 4.71244 76.8779 4.62044 76.9449 4.55261C77.0119 4.48478 77.1029 4.44667 77.1977 4.44667H90.0169C90.1117 4.44667 90.2026 4.40857 90.2696 4.34074C90.3367 4.27291 90.3743 4.18091 90.3743 4.08499V3.3363C90.3743 3.24037 90.3367 3.14837 90.2696 3.08055C90.2026 3.01272 90.1117 2.97461 90.0169 2.97461H75.6426C75.5478 2.97461 75.4569 3.01272 75.3899 3.08055C75.3228 3.14837 75.2852 3.24037 75.2852 3.3363Z" fill="#3D79EF"/>
<path d="M88.7741 17.3411H87.7946C87.7464 17.3409 87.6988 17.3308 87.6545 17.3116C87.6103 17.2923 87.5704 17.2642 87.5372 17.2289C86.9151 16.5417 83.6797 12.9646 82.5321 11.489C81.2952 9.88668 79.3146 7.22467 78.453 6.06365C78.4152 6.00992 78.3926 5.94675 78.3877 5.88097C78.3828 5.81519 78.3958 5.74931 78.4253 5.69045C78.4547 5.6316 78.4995 5.58202 78.5548 5.54707C78.6101 5.51213 78.6738 5.49315 78.739 5.49219H79.7794C79.8343 5.49275 79.8883 5.50609 79.9373 5.53117C79.9862 5.55626 80.0288 5.59243 80.0618 5.63686C80.6231 6.40726 83.2793 10.0169 84.3161 11.3153C85.2634 12.4836 87.8911 15.4675 89.0279 16.7407C89.0726 16.7919 89.1019 16.855 89.1126 16.9224C89.1233 16.9899 89.1149 17.0591 89.0883 17.1219C89.0618 17.1847 89.0182 17.2387 88.9625 17.2774C88.9069 17.3162 88.8416 17.3383 88.7741 17.3411Z" fill="#3D79EF"/>
<path d="M78.74 17.449H79.7159C79.7647 17.4493 79.813 17.4395 79.8579 17.4202C79.9028 17.4009 79.9433 17.3725 79.9769 17.3368C80.5954 16.6496 83.8308 13.0726 84.982 11.5969C86.2189 9.99459 88.1995 7.33258 89.0646 6.17156C89.1025 6.11783 89.125 6.05466 89.1299 5.98888C89.1348 5.9231 89.1218 5.85722 89.0924 5.79836C89.0629 5.73951 89.0181 5.68993 88.9628 5.65498C88.9075 5.62004 88.8438 5.60106 88.7786 5.6001H87.7383C87.6828 5.6001 87.6281 5.61317 87.5784 5.63828C87.5288 5.66339 87.4856 5.69985 87.4523 5.74477C86.891 6.51517 84.2348 10.1248 83.198 11.4233C82.2506 12.5915 79.623 15.5754 78.4897 16.8486C78.4452 16.8996 78.4159 16.9623 78.4051 17.0295C78.3942 17.0967 78.4023 17.1656 78.4285 17.2283C78.4546 17.291 78.4977 17.3449 78.5528 17.384C78.6079 17.423 78.6728 17.4455 78.74 17.449Z" fill="#3D79EF"/>
<path d="M4.32167 26.336C4.11858 26.3357 3.91902 26.2822 3.74255 26.1804C3.61004 26.1036 3.49385 26.001 3.40068 25.8786C3.3075 25.7562 3.23918 25.6163 3.19964 25.467C3.1601 25.3178 3.15013 25.1621 3.1703 25.0089C3.19047 24.8558 3.24038 24.7081 3.31715 24.5746L13.4124 6.88444C13.5146 6.70652 13.6611 6.55886 13.8374 6.45622C14.0137 6.35358 14.2135 6.29956 14.4169 6.29956C14.6203 6.29956 14.8201 6.35358 14.9964 6.45622C15.1726 6.55886 15.3192 6.70652 15.4214 6.88444L19.0176 13.185C19.1031 13.3188 19.1607 13.4687 19.1872 13.6257C19.2136 13.7827 19.2082 13.9435 19.1713 14.0983C19.1345 14.2531 19.0669 14.3988 18.9727 14.5264C18.8785 14.654 18.7597 14.7609 18.6235 14.8406C18.4872 14.9203 18.3364 14.9712 18.1801 14.9902C18.0238 15.0091 17.8653 14.9957 17.7143 14.9508C17.5633 14.9059 17.4229 14.8305 17.3015 14.729C17.1802 14.6275 17.0806 14.5021 17.0086 14.3605L14.4169 9.82134L5.32618 25.7356C5.22623 25.9166 5.08058 26.0676 4.9041 26.1731C4.72762 26.2786 4.52664 26.3348 4.32167 26.336Z" fill="url(#paint0_linear)"/>
<path d="M17.0492 25.6885C16.8453 25.6883 16.6449 25.6341 16.4681 25.5313C16.2912 25.4285 16.1441 25.2807 16.0411 25.1026L12.5736 19.0262C12.4195 18.7562 12.3778 18.4353 12.4576 18.1341C12.5374 17.833 12.7321 17.5762 12.999 17.4203C13.2659 17.2645 13.5831 17.2222 13.8807 17.3029C14.1784 17.3837 14.4321 17.5807 14.5862 17.8507L17.0492 22.1657L26.1364 6.25145C26.2126 6.11774 26.3142 6.00055 26.4353 5.90656C26.5563 5.81257 26.6945 5.74362 26.8419 5.70365C26.9892 5.66368 27.143 5.65348 27.2942 5.67362C27.4455 5.69376 27.5914 5.74386 27.7236 5.82104C27.8557 5.89822 27.9715 6.00098 28.0644 6.12346C28.1573 6.24593 28.2255 6.38572 28.265 6.53484C28.3045 6.68396 28.3146 6.8395 28.2947 6.99256C28.2748 7.14562 28.2253 7.29322 28.149 7.42693L18.0538 25.1026C17.9517 25.2807 17.8052 25.4286 17.6289 25.5314C17.4526 25.6342 17.2527 25.6884 17.0492 25.6885Z" fill="url(#paint1_linear)"/>
<path d="M2.08569 22.4045C1.85207 22.4021 1.62464 22.3282 1.43324 22.1927C1.24185 22.0571 1.09544 21.8662 1.01325 21.6449C-0.306228 18.0963 -0.337979 14.1889 0.92365 10.6188C2.18528 7.04864 4.65838 4.04745 7.90254 2.14968C11.1467 0.251913 14.9513 -0.419233 18.6388 0.255764C22.3263 0.930761 25.6573 2.90808 28.0387 5.83559C28.1389 5.95389 28.2148 6.09122 28.262 6.23955C28.3091 6.38789 28.3265 6.54425 28.3133 6.69948C28.3 6.85472 28.2562 7.00571 28.1845 7.14363C28.1129 7.28155 28.0147 7.40362 27.8959 7.50271C27.777 7.6018 27.6399 7.67591 27.4923 7.72071C27.3448 7.76551 27.19 7.78009 27.0369 7.76362C26.8837 7.74714 26.7354 7.69992 26.6005 7.62474C26.4656 7.54955 26.3469 7.44791 26.2513 7.32574C24.2227 4.81857 21.3794 3.12252 18.2291 2.54045C15.0788 1.95839 11.8265 2.52819 9.05307 4.14813C6.27962 5.76807 4.16555 8.33267 3.08834 11.384C2.01114 14.4353 2.04094 17.7747 3.17242 20.8058C3.23782 20.9824 3.26026 21.1723 3.23786 21.3595C3.21545 21.5468 3.14886 21.7258 3.0437 21.8815C2.93854 22.0372 2.79789 22.165 2.63364 22.2541C2.46939 22.3433 2.28636 22.3911 2.09999 22.3936L2.08569 22.4045Z" fill="url(#paint2_linear)"/>
<path d="M15.8053 32.0001C13.4622 32.0052 11.1474 31.4824 9.02902 30.4695C6.91059 29.4567 5.0417 27.9792 3.55805 26.1443C3.39123 25.902 3.32068 25.605 3.36044 25.3124C3.40019 25.0199 3.54733 24.7532 3.7726 24.5654C3.99786 24.3776 4.28474 24.2824 4.57618 24.2989C4.86761 24.3153 5.14224 24.4422 5.34545 24.6542C7.37019 27.1691 10.2133 28.873 13.3661 29.461C16.5189 30.049 19.7757 29.4828 22.5536 27.8637C25.3316 26.2446 27.4495 23.6782 28.5283 20.6237C29.6072 17.5692 29.5767 14.226 28.4422 11.1922C28.3444 10.9031 28.3618 10.5869 28.4905 10.3105C28.6193 10.0342 28.8493 9.81936 29.1319 9.71167C29.4145 9.60398 29.7275 9.61185 30.0044 9.7336C30.2814 9.85536 30.5006 10.0814 30.6156 10.3639C31.5137 12.7859 31.8184 15.392 31.5037 17.9592C31.189 20.5263 30.2642 22.9781 28.8085 25.1047C27.3528 27.2313 25.4095 28.9694 23.145 30.1702C20.8804 31.3711 18.362 31.9989 15.8053 32.0001Z" fill="url(#paint3_linear)"/>
<defs>
<linearGradient id="paint0_linear" x1="3.15986" y1="16.3172" x2="19.1749" y2="16.3172" gradientUnits="userSpaceOnUse">
<stop offset="0.11" stop-color="#3D79EF"/>
<stop offset="0.25" stop-color="#3D85EF"/>
<stop offset="0.74" stop-color="#3DA8EF"/>
<stop offset="1" stop-color="#3DB6EF"/>
</linearGradient>
<linearGradient id="paint1_linear" x1="29.2893" y1="7.33651" x2="13.6764" y2="22.7678" gradientUnits="userSpaceOnUse">
<stop offset="0.15" stop-color="#3D79EF"/>
<stop offset="0.29" stop-color="#3D85EF"/>
<stop offset="0.75" stop-color="#3DA8EF"/>
<stop offset="1" stop-color="#3DB6EF"/>
</linearGradient>
<linearGradient id="paint2_linear" x1="0.866685" y1="21.6485" x2="22.5736" y2="0.197735" gradientUnits="userSpaceOnUse">
<stop stop-color="#3D79EF" stop-opacity="0"/>
<stop offset="0.18" stop-color="#3D79EF" stop-opacity="0.21"/>
<stop offset="0.48" stop-color="#3D79EF" stop-opacity="0.55"/>
<stop offset="0.72" stop-color="#3D79EF" stop-opacity="0.79"/>
<stop offset="0.9" stop-color="#3D79EF" stop-opacity="0.94"/>
<stop offset="1" stop-color="#3D79EF"/>
</linearGradient>
<linearGradient id="paint3_linear" x1="2436.36" y1="649.466" x2="1130.17" y2="2300.88" gradientUnits="userSpaceOnUse">
<stop stop-color="#3D79EF" stop-opacity="0"/>
<stop offset="0.18" stop-color="#3D79EF" stop-opacity="0.21"/>
<stop offset="0.48" stop-color="#3D79EF" stop-opacity="0.55"/>
<stop offset="0.72" stop-color="#3D79EF" stop-opacity="0.79"/>
<stop offset="0.9" stop-color="#3D79EF" stop-opacity="0.94"/>
<stop offset="1" stop-color="#3D79EF"/>
</linearGradient>
</defs>
</svg>
