<svg width="105" height="32" viewBox="0 0 105 32" fill="none" xmlns="http://www.w3.org/2000/svg">
<path d="M0.0605469 21.647H104.189V22.5071H0.0605469V21.647Z" fill="white"/>
<path d="M17.3081 7.90619C17.3969 7.82083 17.4658 7.73594 17.5207 7.64964V7.35158C17.5086 7.04 17.5291 6.76946 17.5849 6.5437C17.6286 6.30254 17.6421 5.93964 17.6286 5.4592C17.5849 5.06039 17.4086 4.68397 17.0992 4.33226C16.3199 3.65032 15.6667 3.39937 15.1433 3.58361C14.86 3.66897 14.4859 3.66384 14.0184 3.56402C13.4271 3.42036 12.8046 3.48846 12.2584 3.75667C11.9871 3.87048 11.7913 3.92086 11.6643 3.90733C11.5512 3.891 11.4368 3.891 11.3237 3.90733C11.2693 3.92179 11.2339 3.93298 11.2172 3.94931C10.7357 4.14802 10.4053 4.3192 10.2202 4.4596C10.202 4.50158 10.1876 4.5445 10.1764 4.58881C9.93731 5.06972 9.8224 5.40276 9.83915 5.58748C9.90661 6.0418 9.9508 6.35852 9.96383 6.54509C9.93731 6.98402 10.009 7.34179 10.1764 7.61V7.65011L10.2202 7.67483C10.4737 7.8852 10.6938 8.05592 10.879 8.18513C10.9036 8.21171 10.9283 8.23457 10.9413 8.2467C11.1241 8.19212 11.2879 8.1688 11.4279 8.18513C11.6285 8.22804 11.8401 8.22804 12.0648 8.18513C12.25 8.12589 12.4352 8.12169 12.618 8.1618C12.8469 8.19166 13.027 8.15667 13.1684 8.05639C13.3247 7.99901 13.5783 7.98036 13.9351 7.99295H13.9546C14.0956 7.90666 14.197 7.83809 14.2524 7.77978C14.2966 7.72428 14.3413 7.66597 14.4027 7.60953C14.4096 7.5223 14.4464 7.44068 14.5069 7.3777C14.565 7.27602 14.6134 7.13562 14.6553 6.94811C14.6553 6.82077 14.6371 6.64492 14.5939 6.41729C14.5781 6.28295 14.5781 6.14675 14.5939 6.01241C14.7074 5.75586 14.7688 5.54363 14.7869 5.37571C14.7869 5.04873 14.9116 4.79218 15.1675 4.60607C15.449 4.38077 15.6746 4.29122 15.8463 4.33413C16.0035 4.37331 16.1278 4.48806 16.2278 4.6723C16.3413 4.91439 16.3902 5.18493 16.3771 5.48206C16.3399 5.69103 16.2901 5.8972 16.2278 6.1001C16.1426 6.29881 16.0324 6.48166 15.8891 6.65191C15.7314 6.83849 15.6486 7.10716 15.6346 7.4626C15.6174 7.5335 15.6062 7.6114 15.5909 7.69442C15.6346 7.73827 15.6746 7.78865 15.7174 7.84742C15.7309 7.84742 15.7458 7.86561 15.7612 7.90806C15.9463 7.89453 16.1701 7.90806 16.4399 7.95237C16.6986 7.98129 16.9284 7.98735 17.1415 7.97056C17.169 7.97056 17.1876 7.98269 17.2057 7.99435C17.2313 7.95237 17.2467 7.93185 17.2467 7.93185C17.2467 7.93185 17.2653 7.92158 17.3081 7.90619ZM12.8939 10.9083C12.8939 10.8663 12.899 10.8229 12.9134 10.7814C12.9269 10.6233 12.9134 10.4819 12.8716 10.356V10.078V9.82143C12.8348 9.77059 12.7818 9.73327 12.7213 9.71601C12.5524 9.61013 12.3649 9.53829 12.1691 9.50378H12.1495C11.9095 9.63112 11.7201 9.70248 11.5791 9.71601C11.4242 9.74306 11.2674 9.75799 11.1106 9.76032C11.0399 9.78924 10.9962 9.8065 10.9827 9.82096C10.825 9.92125 10.7217 10.0206 10.6626 10.1195C10.591 10.1923 10.5351 10.279 10.4989 10.3746C10.4807 10.6587 10.4467 10.8873 10.3886 11.0584C10.3021 11.252 10.2653 11.4647 10.2821 11.6765C10.4393 11.4918 10.651 11.371 10.919 11.3113C11.1479 11.2282 11.3302 11.1933 11.4712 11.2068C11.6285 11.2488 11.7904 11.2488 11.9578 11.2068C12.103 11.1648 12.2575 11.1648 12.4026 11.2068H12.4515C12.6455 11.0934 12.7939 10.995 12.8939 10.9083ZM19.5179 17.0173C19.5887 17.3723 19.5938 17.6559 19.5375 17.8695C19.4775 17.9908 19.4351 18.1205 19.4109 18.2539C19.3528 18.4087 19.2984 18.5142 19.2421 18.5706C19.0443 18.7497 18.7871 18.8477 18.5209 18.8463C18.2795 18.8332 18.0752 18.7129 17.9036 18.4852C17.7203 18.1872 17.6337 17.946 17.6482 17.7627C17.6649 17.6111 17.643 17.4577 17.584 17.3168C17.5412 17.1992 17.5412 17.0705 17.584 16.953C17.6277 16.793 17.6277 16.6241 17.584 16.4641C17.4695 16.0368 17.4355 15.7187 17.4779 15.5046C17.5481 14.8815 17.5337 14.2513 17.4351 13.6318C17.4197 13.4761 17.4197 13.3189 17.4351 13.1631C17.4509 12.9294 17.4509 12.6947 17.4351 12.4611C17.4067 12.0907 17.4197 11.801 17.4779 11.5874C17.5495 11.3052 17.5607 11.009 17.5198 10.6937C17.4728 10.4833 17.4444 10.2688 17.4351 10.0537C17.3369 9.93991 17.2229 9.84055 17.0969 9.75846C16.9787 9.63391 16.8503 9.51964 16.7135 9.41608C16.6805 9.39836 16.6451 9.3853 16.6084 9.3769C16.1813 9.2463 15.7286 9.22391 15.2903 9.31113C15.1312 9.35125 14.9684 9.37364 14.8046 9.3769C14.646 9.40069 14.539 9.43754 14.4845 9.47952C14.4045 9.50518 14.3315 9.54995 14.2719 9.60966C14.2845 9.62785 14.2919 9.64931 14.2943 9.67123C14.2943 9.82936 14.2984 9.99635 14.3147 10.1839C14.3282 10.2921 14.3133 10.4022 14.271 10.5029C14.2547 10.5174 14.2496 10.5468 14.2496 10.5883C14.3631 10.7296 14.4901 10.8499 14.6339 10.9484C14.646 10.9638 14.6623 10.9792 14.6758 10.9927C14.8577 10.9792 15.0796 10.9927 15.3331 11.0347C15.603 11.0491 15.8435 11.0491 16.0543 11.0347C16.2813 11.0491 16.5009 11.1252 16.713 11.2674C16.9536 11.4223 17.0722 11.649 17.0722 11.9494C17.0903 12.2036 16.9475 12.4014 16.6479 12.545C16.3092 12.671 15.9198 12.6658 15.4811 12.5236C15.1619 12.4391 14.8288 12.4247 14.5036 12.4816C14.2691 12.5529 14.0202 12.5595 13.7825 12.5012H13.7611C13.1814 12.6989 12.7855 12.8725 12.5729 13.0138L12.5924 13.0325C12.6343 13.2489 12.5924 13.5316 12.4645 13.8847C12.4394 14.0111 12.4338 14.1407 12.4473 14.269V14.7149C12.4473 14.8871 12.4719 15.0349 12.5282 15.1609C12.5524 15.2369 12.5882 15.3083 12.6343 15.3731C12.8213 15.4902 12.8632 15.6502 12.7641 15.8643C12.6771 16.0774 12.5412 16.229 12.3584 16.3102C12.2593 16.3237 12.1588 16.3237 12.0597 16.3102L11.742 16.2034C11.4442 16.1185 11.2274 15.8587 11.0846 15.4183C10.9711 14.8362 10.9352 14.3656 10.978 14.0115C11.0069 13.8422 11.0274 13.6925 11.0404 13.5647V13.3944C11.0213 13.3105 10.9855 13.2312 10.9352 13.1607C10.8924 13.0754 10.8482 13.0129 10.8082 12.9681C10.6812 12.9681 10.5682 12.963 10.4677 12.9485C10.3597 12.8893 10.2541 12.8254 10.1509 12.7577C10.1523 12.7932 10.1592 12.8286 10.1704 12.8622C10.1704 13.046 10.142 13.2731 10.0853 13.5437C9.98709 13.7713 9.94522 13.971 9.95825 14.1384C9.94522 14.2685 9.93173 14.395 9.91638 14.5218C9.87544 14.6221 9.86101 14.7359 9.87544 14.8633C9.87544 14.9892 9.84706 15.1259 9.78658 15.27C9.71679 15.423 9.68329 15.5867 9.68329 15.7588C9.68329 15.8582 9.65584 16.0009 9.59536 16.1833C9.38368 16.709 9.25155 17.1274 9.19247 17.4413C9.1171 17.6634 8.99428 17.8663 8.83237 18.0351C8.57882 18.2501 8.34387 18.3742 8.13405 18.4204C7.92795 18.4293 7.72278 18.3845 7.53901 18.2893C7.35478 18.1471 7.23242 17.9861 7.17613 17.7991C7.13426 17.6158 7.11983 17.432 7.13426 17.2478C7.19334 17.063 7.24591 16.9012 7.30407 16.7575C7.43713 16.5961 7.55809 16.4254 7.66509 16.2458C7.90422 15.9636 8.02705 15.729 8.02705 15.5447C8.05357 15.389 8.09869 15.2831 8.15173 15.2257C8.27967 14.8987 8.37365 14.6063 8.43087 14.3525C8.50717 14.2009 8.55044 14.0344 8.55788 13.8646C8.55788 13.2955 8.6714 12.7484 8.89518 12.2246C9.02172 11.8957 9.03522 11.5776 8.94031 11.2651C8.96869 11.0239 8.98916 10.8551 9.00172 10.7543C9.07337 10.544 9.10175 10.328 9.08686 10.1148C9.0301 9.79111 9.02359 9.4604 9.06732 9.13482C9.09384 8.86614 9.07941 8.34232 9.02219 7.56009C8.98218 7.1067 8.8668 6.75126 8.68675 6.49705C8.43087 6.12809 8.29502 5.65931 8.27967 5.09024C8.21314 4.51231 8.30526 3.98289 8.56207 3.49825C8.80027 2.93012 9.02545 2.59801 9.23899 2.49679C9.56605 2.32747 9.85543 2.33353 10.1104 2.51918C10.095 2.50472 10.095 2.49679 10.1104 2.49679C10.1648 2.48046 10.2658 2.48046 10.4077 2.49679C10.4965 2.49679 10.6212 2.49166 10.7878 2.4744C11.0934 2.36292 11.4233 2.334 11.7438 2.39044C11.9709 2.44595 12.1477 2.45621 12.2765 2.41283C12.5738 2.27056 12.792 2.21925 12.9339 2.2631C13.0176 2.27663 13.1251 2.25517 13.2531 2.19873C13.5918 2.0574 13.8881 2.02848 14.1445 2.1157C14.4106 2.1852 14.6846 2.1908 14.9479 2.13389C15.3899 2.06393 15.7667 2.05786 16.0757 2.1157C16.2762 2.14229 16.4367 2.14835 16.5642 2.13389C16.7219 2.13389 16.8452 2.17774 16.9484 2.2631C17.0922 2.35779 17.2629 2.4021 17.4341 2.38997C17.6603 2.37691 17.8431 2.39837 17.9882 2.45574C18.1711 2.55183 18.2907 2.65258 18.3469 2.751C18.4195 2.90866 18.5596 3.03694 18.7736 3.13956C19.1271 3.3364 19.3667 3.65545 19.4942 4.09577C19.5538 4.33366 19.5538 4.59068 19.4942 4.86168C19.4551 5.0464 19.3826 5.18073 19.2844 5.26376C19.1876 5.37104 19.1276 5.50585 19.1127 5.64998C19.0997 5.80671 19.0709 5.91259 19.0308 5.96856C18.9592 6.13649 18.9438 6.28622 18.9871 6.41449C19.0308 6.54183 19.0308 6.69669 18.9871 6.88327C18.8987 7.38144 18.8769 7.88987 18.9224 8.39363C18.9224 8.74813 18.8722 9.03966 18.774 9.26729C18.7312 9.39416 18.7401 9.57094 18.7973 9.79717C18.8392 9.98375 18.8322 10.203 18.774 10.4605C18.7145 10.6727 18.7145 10.8919 18.774 11.1205C18.8722 11.6578 18.8945 12.1201 18.8387 12.5016C18.7508 13.1556 18.7824 13.6365 18.9224 13.95C19.1914 14.7723 19.3337 15.4365 19.3477 15.9501C19.3779 16.3634 19.4328 16.7188 19.5179 17.0173ZM14.4208 14.9729C14.5343 14.9472 14.7195 14.9248 14.974 14.9113C15.214 14.8959 15.3829 14.8609 15.4829 14.8036C15.7681 14.707 16.0557 14.7401 16.3539 14.9113C16.5944 15.0382 16.7354 15.2509 16.7772 15.5489C16.7944 15.8759 16.6972 16.1036 16.4799 16.2328C16.2138 16.4007 15.837 16.4571 15.355 16.4007C15.215 16.3732 15.1354 16.3638 15.1228 16.3792C15.0317 16.3937 14.9395 16.4007 14.847 16.4007C14.7441 16.3979 14.6423 16.4198 14.5497 16.4651C14.2961 16.5499 13.976 16.542 13.5945 16.4427C13.4061 16.3312 13.2861 16.132 13.2754 15.9128C13.2884 15.7537 13.3461 15.5835 13.4443 15.3992C13.6029 15.2024 13.7918 15.0956 14.0179 15.0802C14.1873 15.0531 14.3226 15.0158 14.4208 14.9729ZM11.5577 5.20219C11.6298 5.15508 11.688 5.08978 11.7257 5.01235C11.7401 4.89573 11.8955 4.84816 12.1909 4.86262C12.4017 4.87474 12.5836 4.95311 12.7218 5.09444C12.8651 5.30994 12.9558 5.52077 13 5.73301C13.0256 5.83236 13.0605 5.92658 13.106 6.01008C13.12 6.09497 13.12 6.18173 13.106 6.26662C13.1479 6.4644 13.1735 6.61413 13.1889 6.71255C13.2042 6.82823 13.1837 6.97609 13.1265 7.16034C13.0265 7.40243 12.9069 7.54376 12.7674 7.58667C12.6376 7.64591 12.4668 7.56428 12.257 7.35112C11.9574 7.15521 11.7899 6.94531 11.7457 6.73401C11.6057 6.40796 11.528 6.18126 11.5135 6.05253C11.5135 5.96763 11.494 5.81137 11.4489 5.58421C11.4647 5.34446 11.4991 5.21758 11.5577 5.20219ZM4.67594 8.31153C4.66245 8.31153 4.6564 8.31946 4.6564 8.33486C4.54288 8.43141 4.37121 8.48738 4.14697 8.50324C3.94738 8.53216 3.82084 8.63852 3.76454 8.8223C3.64637 9.0961 3.44632 9.32653 3.19183 9.48139C3.00574 9.59707 2.90944 9.73747 2.89315 9.90772C2.86477 10.1489 2.77963 10.3331 2.64053 10.4633C2.45443 10.6326 2.36929 10.7884 2.38186 10.9316C2.44001 11.1849 2.574 11.4246 2.78801 11.6522C2.94526 11.7395 3.10484 11.7814 3.27651 11.7814C3.48912 11.7968 3.63753 11.8309 3.7236 11.8883C3.86271 11.9736 3.9832 11.9946 4.07951 11.9517C4.27863 11.8799 4.42844 11.8654 4.52427 11.9074C4.68059 11.9363 4.88856 11.9004 5.14211 11.8029C5.39753 11.6863 5.61153 11.5188 5.77902 11.2893V11.2474C5.77902 10.9941 5.8074 10.7954 5.86788 10.6508C5.93767 10.4684 5.96418 10.2408 5.95162 9.97116C5.92185 9.71508 5.85858 9.53969 5.76134 9.43894C5.71435 9.35871 5.6776 9.27242 5.65201 9.18286C5.60363 9.04013 5.52454 8.90999 5.42079 8.8013C5.37473 8.75979 5.33844 8.70895 5.31471 8.65158C5.29657 8.60306 5.26679 8.55968 5.22864 8.5247C5.05371 8.43095 4.86808 8.35911 4.67594 8.31153ZM0.962417 11.676C0.972187 11.4894 0.95032 11.3024 0.897749 11.1233C0.854016 10.9092 0.906123 10.6671 1.04709 10.3966C1.2597 9.90119 1.47232 9.61153 1.6854 9.52337C1.82357 9.45387 1.9022 9.31207 1.92034 9.09703C1.93337 8.89926 2.0306 8.66557 2.21391 8.39503C2.32463 8.1758 2.33301 7.91832 2.23624 7.69256C2.21716 7.57501 2.16552 7.4654 2.0869 7.37584C2.00083 7.24663 1.91011 7.17806 1.81101 7.16081C1.57048 7.07171 1.42161 6.9621 1.36438 6.81843C1.30623 6.74613 1.23272 6.68829 1.14944 6.64911C1.03825 6.59174 0.990796 6.50172 1.00243 6.37251C1.01778 6.28622 0.975909 6.19433 0.875417 6.09684C0.782835 6.00448 0.723285 5.88414 0.705606 5.75446C0.692114 5.34352 0.727006 5.11077 0.812145 5.05246C0.911241 4.96757 0.953112 4.87381 0.941016 4.77586C0.941016 4.63452 1.0536 4.34346 1.27738 3.90453C1.54955 3.3919 1.72634 3.09244 1.81101 3.00755C1.8673 2.96744 1.92034 2.87415 1.95942 2.73375C2.01571 2.619 2.09341 2.51965 2.19437 2.43429C2.27532 2.38158 2.32975 2.29575 2.34278 2.19966C2.37488 2.08398 2.45025 1.9851 2.55353 1.92399C2.6396 1.89647 2.7252 1.79665 2.81034 1.62546C3.03645 1.21126 3.21324 1.01628 3.33978 1.02794C3.45144 1.03307 3.5617 1.00322 3.65568 0.94305C3.79897 0.85769 3.9739 0.84463 4.18651 0.902003C4.35958 0.95751 4.48519 0.981766 4.56894 0.96544C4.79411 0.909 5.05883 0.96544 5.35612 1.13476C5.69481 1.37545 5.87439 1.63106 5.88463 1.89974C5.89998 2.15815 5.85811 2.31487 5.76088 2.37038C5.53058 2.55276 5.35007 2.63812 5.20678 2.6246C5.0379 2.61107 4.92438 2.63253 4.86948 2.69037C4.76062 2.77573 4.62244 2.81397 4.48519 2.79672C4.36516 2.76686 4.23815 2.79951 4.14697 2.88301C4.06183 2.95298 3.98972 2.98843 3.93249 2.98843C3.84782 2.97397 3.76361 3.01501 3.67801 3.1153C3.56356 3.25757 3.49982 3.37138 3.48866 3.45487C3.45888 3.613 3.40352 3.71142 3.31791 3.75433C3.20672 3.85835 3.12531 3.99036 3.0825 4.13682C3.01272 4.32154 2.95038 4.42089 2.89222 4.43488C2.79499 4.50765 2.7145 4.71195 2.66007 5.05199C2.47304 5.43728 2.42512 5.71808 2.51166 5.90186C2.66891 6.14581 2.79499 6.29461 2.89222 6.35292C2.99132 6.37951 3.04668 6.42288 3.06483 6.47793C3.10484 6.59081 3.21324 6.65611 3.38258 6.6687C3.53471 6.68596 3.638 6.71255 3.67987 6.755C3.87713 6.85528 4.04275 6.83476 4.16837 6.69156C4.27956 6.57868 4.38796 6.51198 4.48613 6.50078C4.64245 6.48539 4.74666 6.38697 4.80528 6.20365C4.83505 6.12063 4.88576 6.04693 4.95276 5.98955C5.09512 5.9014 5.19189 5.75353 5.25051 5.5413C5.30494 5.38644 5.3631 5.28102 5.42032 5.22131C5.51849 5.10983 5.54826 5.00395 5.5022 4.90273C5.4929 4.78985 5.35007 4.66391 5.0807 4.51931C4.96625 4.44934 4.95927 4.29915 5.0593 4.07245C5.13001 3.93019 5.25563 3.86208 5.43986 3.86208C5.53849 3.84669 5.63247 3.80984 5.71575 3.75433C5.81577 3.6825 5.92743 3.67644 6.05723 3.73101C6.16284 3.78046 6.27869 3.80331 6.39546 3.79865C6.79324 3.8271 7.1203 4.01088 7.37478 4.34999C7.52924 4.56222 7.57809 4.71195 7.52226 4.79685C7.44969 4.91066 7.4576 5.05946 7.5446 5.24464C7.59763 5.41023 7.59763 5.58841 7.5446 5.754C7.43108 6.01054 7.30407 6.14675 7.16403 6.15888C6.80906 6.27549 6.53829 6.42428 6.35545 6.60807C6.22658 6.72095 6.15726 6.84176 6.14284 6.9677C6.10143 7.04046 6.07259 7.11976 6.05816 7.20232C6.05816 7.24617 6.06514 7.27322 6.07863 7.28955C6.10748 7.43181 6.12562 7.60813 6.14097 7.82036C6.1554 7.83762 6.16935 7.84882 6.18471 7.86328C6.22472 7.9505 6.27589 7.99761 6.33219 8.01394C6.47408 8.06805 6.57132 8.18419 6.63087 8.35305C6.68484 8.49532 6.76579 8.61566 6.86302 8.71501C6.96119 8.77145 7.04121 8.8932 7.09611 9.07791C7.21149 9.3783 7.27522 9.63858 7.28732 9.86341C7.3157 10.1638 7.35897 10.3812 7.41433 10.5239C7.48598 10.724 7.51436 10.8938 7.50226 11.0356C7.49575 11.3211 7.39758 11.5972 7.22219 11.822C7.11937 11.9288 6.99794 12.0161 6.86349 12.0786C6.79277 12.1639 6.6853 12.253 6.54341 12.3542C6.28752 12.5147 6.05956 12.7157 5.86835 12.9499C5.59432 13.275 5.20771 13.4593 4.69967 13.5026C4.49915 13.5026 4.31213 13.5325 4.1251 13.5866C3.88271 13.6463 3.65568 13.6113 3.44539 13.4821C3.16206 13.3254 2.89315 13.2554 2.64053 13.2708C2.22833 13.2983 1.83055 13.1561 1.45138 12.8445C1.1085 12.2903 0.945668 11.9004 0.962417 11.676ZM5.92836 14.0792C6.00094 14.0223 6.06049 13.9504 6.10236 13.8688C6.12562 13.7541 6.29776 13.7055 6.60854 13.72C6.83232 13.72 7.01841 13.8091 7.16264 13.9947C7.31616 14.2233 7.41526 14.4407 7.45713 14.6562C7.47248 14.7676 7.50319 14.8665 7.54413 14.9524C7.55762 15.0377 7.55762 15.1296 7.54413 15.229C7.58693 15.4123 7.61345 15.5713 7.6288 15.6973C7.64509 15.8265 7.62043 15.9795 7.56553 16.1661C7.43992 16.4203 7.3036 16.57 7.16357 16.6101C7.01934 16.6694 6.83232 16.5854 6.60947 16.3587C6.30986 16.132 6.14237 15.9025 6.10329 15.674C5.94371 15.3348 5.86928 15.1007 5.86928 14.9729C5.86928 14.8754 5.84601 14.7112 5.80089 14.4831C5.8302 14.2308 5.87532 14.0955 5.92836 14.0792ZM3.65568 14.7177C3.73709 14.6949 3.81107 14.651 3.87062 14.5909C3.91435 14.4915 4.07997 14.4915 4.37959 14.5909C4.57592 14.6604 4.71781 14.7896 4.80481 14.9724C4.8732 15.229 4.90112 15.4645 4.88995 15.6735C4.87274 16.0448 4.91135 16.3862 4.99649 16.6969C5.02115 16.9819 4.96672 17.2823 4.82668 17.5906C4.81133 17.7902 4.79504 17.939 4.78295 18.0384C4.74852 18.1848 4.68292 18.322 4.5908 18.4405C4.40657 18.6424 4.2442 18.7418 4.10323 18.7418C3.96227 18.7562 3.82084 18.6303 3.67894 18.3584C3.48168 18.0743 3.38863 17.8243 3.40398 17.612C3.28953 16.8461 3.25278 16.3349 3.29791 16.0807C3.33978 15.882 3.38816 15.5433 3.44539 15.0587C3.5296 14.8315 3.60217 14.7177 3.65568 14.7177ZM1.09082 14.8675C1.18713 14.4677 1.36392 14.2308 1.61654 14.1417C1.85893 14.0731 2.06224 14.151 2.23624 14.3777C2.36185 14.5899 2.36185 14.874 2.23624 15.2285C2.206 15.4902 2.19855 15.7542 2.21391 16.0177C2.28323 16.2845 2.27206 16.5332 2.16878 16.7608C2.0748 16.9968 1.93848 17.2137 1.76681 17.4007C1.65841 17.6354 1.56629 17.8775 1.49186 18.1247C1.42207 18.4078 1.30064 18.5935 1.12897 18.6765C0.962417 18.788 0.748873 18.8187 0.491131 18.7604C0.250603 18.6909 0.102658 18.5286 0.0472945 18.2716C-0.0224911 17.9847 -0.0150473 17.6843 0.0696259 17.4012C0.181283 17.1717 0.258978 16.9049 0.301779 16.5905C0.301779 16.1371 0.45019 15.7323 0.747477 15.3759C0.91915 15.2089 1.0336 15.0377 1.09082 14.8675ZM29.7564 16.0984C29.9025 15.9282 30.0835 15.7938 30.3119 15.6945C30.5213 15.5961 30.7148 15.4589 30.8846 15.2877C31.181 15.0746 31.4215 14.9197 31.6057 14.8204C31.9286 14.6216 32.3338 14.367 32.8144 14.0526C33.1996 13.7708 33.4741 13.5787 33.6458 13.4793C33.7421 13.3091 33.8756 13.1757 34.0478 13.0735C34.4465 12.8319 34.8224 12.5543 35.1713 12.2442C35.4565 12.0455 35.704 11.9746 35.9138 12.0301C36.2418 12.1173 36.3963 12.3081 36.3833 12.6071C36.327 12.8869 36.1432 13.1239 35.831 13.3081C35.6622 13.4201 35.5179 13.5647 35.4058 13.7335C35.0815 14.005 34.7833 14.2452 34.5172 14.4593C34.2883 14.5708 34.1064 14.7425 33.9622 14.9696C33.637 15.2821 33.3415 15.5009 33.0708 15.6278C33.0024 15.7705 32.9573 15.9282 32.9442 16.0984C32.8898 16.3396 32.8531 16.4688 32.8368 16.4818C32.7172 16.4683 32.5962 16.4683 32.4767 16.4818C32.3362 16.5005 32.1952 16.5145 32.0542 16.5238C31.9979 16.5238 31.9612 16.5308 31.9458 16.5453C31.9286 16.5453 31.9175 16.5513 31.904 16.5667C31.7067 16.6927 31.535 16.8489 31.3945 17.0341C31.2545 17.1764 31.0042 17.3182 30.6511 17.4595C30.4506 17.5467 30.2403 17.7007 30.0151 17.9283C29.8299 18.071 29.5173 18.2329 29.0804 18.4171C28.5026 18.7012 28.0946 18.8509 27.8708 18.8631C27.741 18.85 27.5293 18.9484 27.2316 19.1635C26.8952 19.3901 26.5672 19.51 26.2574 19.5236C25.8596 19.5688 25.5572 19.5236 25.3432 19.3962C25.0706 19.2246 24.8793 18.9494 24.8133 18.6336C24.7714 18.3896 24.8826 18.1345 25.152 17.8616C25.4069 17.6088 25.7493 17.4646 26.108 17.4595C26.7575 17.3742 27.2111 17.2473 27.4689 17.077C27.6368 16.9651 27.8922 16.8783 28.2305 16.8228C29.0241 16.5238 29.5313 16.2813 29.7564 16.0984ZM35.4928 19.3771C35.1402 19.5175 34.8703 19.5697 34.6838 19.5245C34.4991 19.4531 34.3064 19.4037 34.1101 19.3771C33.8156 19.3351 33.6253 19.2437 33.5407 19.0991C33.4774 18.9335 33.382 18.7819 33.2606 18.6532C33.1434 18.5575 33.0685 18.4195 33.0512 18.2688C33.0182 18.1522 32.9601 18.0435 32.8814 17.9512C32.7326 17.7618 32.6437 17.5323 32.626 17.2921C32.6097 17.0509 32.6697 16.8839 32.794 16.799C32.9922 16.6596 33.249 16.6731 33.5616 16.8452C33.6998 16.9273 33.864 17.0411 34.0473 17.1848C34.1473 17.2394 34.2436 17.2701 34.3446 17.2701C34.6144 17.3532 35.0104 17.3247 35.5337 17.1848C36.2125 17.0546 36.6461 16.9007 36.8322 16.7151C36.8927 16.6064 37.003 16.5346 37.1267 16.5234C37.4231 16.396 37.7473 16.1124 38.1042 15.6712C38.2312 15.4864 38.3466 15.3432 38.4447 15.2486C38.6992 14.9943 38.91 14.5801 39.0826 14.0134C39.1952 13.4168 39.1868 12.9914 39.0561 12.7363C38.9035 12.2801 38.6266 11.878 38.2317 11.5212C38.1721 11.4825 38.106 11.4545 38.0372 11.4391C37.8892 11.4475 37.7413 11.4605 37.5943 11.4783C37.3807 11.5212 37.2128 11.5492 37.0853 11.5645C36.9713 11.5888 36.8573 11.6093 36.742 11.627C36.6601 11.614 36.5884 11.4731 36.5335 11.2026C36.4586 10.9484 36.3665 10.6997 36.2572 10.4591C36.2149 10.3984 36.179 10.3331 36.1507 10.2646C36.0692 10.2342 35.9822 10.2193 35.8952 10.2216C35.5272 10.1521 35.2723 10.1456 35.1285 10.2021C34.8624 10.2716 34.6549 10.2883 34.5172 10.244H34.473C34.4046 10.4591 34.2348 10.6498 33.9617 10.8192C33.8054 10.9176 33.6802 11.0398 33.5816 11.1793C33.2974 11.4213 33.0191 11.6364 32.7544 11.8192C32.5553 11.9312 32.3818 12.0837 32.245 12.267C31.9282 12.5366 31.662 12.7358 31.4359 12.8617C31.2782 12.9452 31.1349 13.0534 31.0107 13.1817C30.8148 13.3795 30.5948 13.5516 30.3561 13.6934C30.164 13.7806 29.9956 13.9126 29.8644 14.0787C29.7243 14.2336 29.4954 14.3628 29.1847 14.4598C29.019 14.5293 28.8255 14.672 28.6133 14.8852C28.4282 14.9981 28.1351 15.1403 27.7401 15.3125C27.2186 15.5531 26.8487 15.6712 26.6379 15.6712C26.5212 15.653 26.3323 15.7421 26.0662 15.9277C25.7675 16.1255 25.4679 16.2314 25.1706 16.2486C24.8026 16.2761 24.5272 16.2262 24.3434 16.098C24.0889 15.9431 23.9335 15.7066 23.8749 15.396C23.8312 15.1972 23.9396 14.9696 24.1931 14.7163C24.4285 14.4906 24.7393 14.3604 25.0645 14.3516C25.6749 14.2951 26.0931 14.1948 26.3169 14.0521C26.4588 13.9672 26.6849 13.8982 26.9966 13.8408C27.7196 13.5987 28.1876 13.3856 28.3998 13.2008C28.5277 13.0595 28.7045 12.9466 28.9292 12.8617C29.1284 12.7633 29.2996 12.6416 29.4415 12.4988C29.7076 12.3155 29.9365 12.1831 30.1193 12.093C30.431 11.9097 30.8083 11.684 31.2452 11.4134C31.5992 11.1723 31.8444 11.0025 31.9863 10.9031C32.1008 10.7748 32.2296 10.6601 32.3706 10.5607C32.6758 10.3952 32.9666 10.2039 33.2397 9.98888L33.2201 9.96743C33.0196 9.85268 32.9224 9.64138 32.9224 9.32793C32.9377 9.0308 33.0992 8.81437 33.4113 8.68796C33.6905 8.59607 33.984 8.55315 34.2776 8.56108C34.5488 8.57741 34.8391 8.61333 35.149 8.66743C35.4761 8.77938 35.7254 8.80784 35.8943 8.7528C36.0088 8.71081 36.1581 8.69542 36.3391 8.71081C36.5107 8.79897 36.7052 8.83256 36.9341 8.8153C37.0765 8.78871 37.237 8.83769 37.4208 8.96316C37.7334 9.19359 38.0577 9.37037 38.3982 9.49818C38.6978 9.62505 38.8974 9.78225 38.9923 9.96789C39.2445 10.2422 39.5227 10.4908 39.8228 10.7109C39.9786 10.8262 40.0726 11.0071 40.0763 11.2012C40.1601 11.357 40.2675 11.5711 40.3964 11.8398C40.536 12.0053 40.6039 12.2194 40.5858 12.4354C40.6141 12.6066 40.6807 12.7563 40.7798 12.8823C40.8486 12.9919 40.8556 13.129 40.7984 13.2452C40.7137 13.3991 40.6993 13.5908 40.7546 13.8194C40.8537 13.9742 40.8151 14.2942 40.6276 14.7798C40.5969 14.9253 40.583 15.0741 40.5858 15.2229C40.5858 15.4641 40.4485 15.799 40.1819 16.2253C39.8284 16.6516 39.5869 16.8704 39.4599 16.8835C39.3599 16.9553 39.2687 17.0836 39.1849 17.2697C38.9732 17.5514 38.649 17.8294 38.2065 18.099C37.3305 18.6937 36.7341 19.0226 36.4224 19.0781C36.1046 19.1513 35.7938 19.2511 35.4928 19.3771ZM28.571 2.04853C28.1597 1.93565 27.9532 1.72342 27.9532 1.4109C27.9401 1.09838 28.0462 0.858157 28.27 0.686037C28.5422 0.458411 28.8734 0.338533 29.2679 0.324074C29.5122 0.309614 29.7667 0.273697 30.0319 0.218656C30.4343 0.0703257 30.8604 -0.00244028 31.2894 0.00362355C31.8733 -0.009437 32.3301 0.0129525 32.6697 0.0684599C33.1201 0.183206 33.5877 0.212126 34.0482 0.15382C34.7833 0.0526006 35.4361 0.13936 35.9995 0.407101C36.1437 0.508321 36.3484 0.549834 36.6168 0.536307C36.9164 0.549834 37.2193 0.685105 37.5301 0.940252C37.8837 1.15435 38.0679 1.34513 38.0832 1.51538C38.0986 1.68564 38.173 1.83443 38.3154 1.96224C38.5006 2.16001 38.5852 2.52291 38.569 3.04906C38.6141 3.30328 38.6755 3.52484 38.763 3.70956C38.8774 3.89334 38.9346 4.18347 38.9346 4.57902V5.85662C38.9184 6.4532 38.7774 6.88467 38.5043 7.15474C38.2926 7.48359 37.9493 7.7392 37.4654 7.92345C37.1267 8.12029 36.6801 8.19306 36.126 8.13382C35.7468 8.10723 35.4193 8.12029 35.1495 8.17673C34.8396 8.29148 34.5493 8.3036 34.2781 8.22198C34.0329 8.1077 33.7537 8.09137 33.4969 8.17673C33.1843 8.33486 32.8959 8.34885 32.6255 8.22198C32.4241 8.13475 32.1989 8.11889 31.9872 8.17673C31.9175 8.43281 31.8193 8.67303 31.6909 8.90066C31.5392 9.12689 31.3452 9.32186 31.1196 9.47486C30.9884 9.57934 30.8725 9.70202 30.7762 9.83962C30.6813 10.0528 30.5431 10.1853 30.3752 10.2426C30.1789 10.3126 30.0072 10.4208 29.8639 10.5612C29.6238 10.8178 29.3484 10.995 29.0358 11.0953C28.7943 11.2077 28.5603 11.3351 28.3351 11.4769C28.136 11.635 27.8415 11.7208 27.4437 11.7334C27.1269 11.7404 26.8185 11.836 26.5523 12.0091C26.2802 12.135 26.075 12.1929 25.9359 12.1821C25.767 12.1658 25.6321 12.1821 25.5311 12.2222C25.198 12.3491 24.8328 12.3645 24.4904 12.2661C24.2089 12.1821 24.0601 12.0874 24.0456 11.9904C24.0312 11.8766 23.9963 11.8122 23.9391 11.7954C23.8847 11.7544 23.8479 11.6634 23.8307 11.5198C23.8014 11.3057 23.8637 11.0892 24.0033 10.9241C24.1298 10.7972 24.3211 10.6914 24.5779 10.6051C24.8468 10.5342 25.1148 10.5272 25.3827 10.5855C25.567 10.6284 25.794 10.6489 26.0648 10.6489C26.3309 10.6214 26.5803 10.5435 26.804 10.4171C27.019 10.244 27.2558 10.1526 27.527 10.1391C27.7978 10.0971 28.0374 9.98142 28.25 9.79671C28.4473 9.64371 28.6589 9.54156 28.885 9.49958C29.2121 9.34285 29.4801 9.13855 29.6941 8.8806C29.7792 8.71221 29.862 8.57741 29.9509 8.47386C29.6229 8.36284 29.2651 8.3787 28.9478 8.5177C28.7371 8.60586 28.3979 8.57741 27.9304 8.43374C27.4354 8.30547 27.1409 8.12635 27.039 7.90059C26.9952 7.67483 26.8394 7.46773 26.5714 7.28628C26.3616 7.15614 26.2741 6.87207 26.316 6.43408C26.3104 5.886 26.2751 5.33933 26.2099 4.79498C26.1397 4.54496 26.1327 4.28095 26.1904 4.02721C26.216 3.85882 26.2243 3.6825 26.2099 3.49499C26.1895 3.14422 26.2555 2.79438 26.403 2.4758C26.4798 2.29062 26.6031 2.12923 26.7617 2.00702C26.8785 1.9128 27.0199 1.85356 27.1688 1.83677C27.3353 1.86522 27.487 1.90627 27.6135 1.96411C27.7382 2.07792 27.8331 2.24071 27.8899 2.45621C27.9862 2.71136 28.0095 3.1195 27.9504 3.68857C27.8504 4.36911 27.8317 4.88687 27.8899 5.2437C27.976 5.69476 28.0881 6.01241 28.2295 6.19992C28.4003 6.49332 28.6608 6.69389 29.019 6.79558C29.5382 6.95137 30.1193 6.93505 30.7562 6.75266C31.5764 6.51058 32.3808 6.48492 33.1568 6.66637C33.6505 6.78112 34.0915 6.76479 34.473 6.62206C34.8945 6.50545 35.3314 6.45554 35.7678 6.47466C36.1758 6.52924 36.4959 6.42429 36.722 6.15561C36.9071 6.01194 37.0625 5.7484 37.1905 5.36825C37.2449 4.94191 37.2119 4.57248 37.0853 4.26183C36.9918 4.01601 36.9411 3.7562 36.935 3.49312C36.9188 3.32707 36.8839 3.16288 36.8318 3.00429C36.6601 2.79298 36.567 2.64232 36.5517 2.56023C36.4954 2.38904 36.4186 2.27336 36.3205 2.21599C36.1814 2.16888 36.052 2.09704 35.938 2.00469C35.7957 1.82091 35.1499 1.70103 34.0045 1.64086C33.2122 1.65812 32.5534 1.63386 32.031 1.58022C31.3233 1.43888 30.665 1.51538 30.0574 1.81298C29.5457 2.05553 29.0525 2.13249 28.571 2.04853ZM31.3769 3.43342C31.8998 3.31914 32.4404 3.31167 32.9661 3.4101C33.376 3.52577 33.7361 3.5393 34.0487 3.45301C34.4302 3.35366 34.7489 3.37604 35.0057 3.51785C35.2593 3.70116 35.3942 3.95164 35.4067 4.26323C35.3495 4.55849 35.2299 4.75627 35.0439 4.85888C34.7912 4.9727 34.5498 4.97969 34.3218 4.87941C33.8849 4.76373 33.4965 4.75533 33.1564 4.85888C32.7465 5.01468 32.3627 5.02167 32.0082 4.87941C31.6555 4.79405 31.1801 4.82203 30.5887 4.9643C30.1472 5.10703 29.7727 5.10703 29.4619 4.9643C29.2358 4.77865 29.1288 4.55336 29.1437 4.28469C29.1735 4.02627 29.2768 3.80798 29.4619 3.62466C29.6462 3.43715 29.8932 3.39517 30.2054 3.49452C30.5017 3.59434 30.8902 3.57289 31.3769 3.43342Z" fill="#BE3038"/>
<path d="M57.333 10.8969H63.6039V12.522H59.689V13.7278H63.3169V15.2727H59.689V16.7695H63.7174V18.4949H57.333V10.8969ZM64.4488 10.8969H71.5683V12.7669H69.1756V18.4953H66.842V12.7669H64.4493L64.4488 10.8969ZM86.9802 18.4953H89.4325L86.5918 10.8969H84.0344L81.1899 18.4953H83.5845L83.9627 17.2434H86.602L86.9802 18.4953ZM84.4577 15.5992L85.2849 12.8681L86.1089 15.5992H84.4577ZM89.7656 15.9826L91.9885 15.845C92.0374 16.2046 92.1369 16.4798 92.2807 16.6683C92.5222 16.9757 92.8678 17.1305 93.3163 17.1305C93.6518 17.1305 93.9062 17.0503 94.0914 16.8959C94.2747 16.7359 94.3612 16.5545 94.3612 16.3446C94.3612 16.15 94.2761 15.9747 94.1058 15.8189C93.9342 15.6607 93.534 15.5157 92.9125 15.3771C91.8839 15.1462 91.1525 14.8379 90.717 14.4564C90.2732 14.072 90.0536 13.5832 90.0536 12.9885C90.0536 12.5971 90.1653 12.2319 90.3909 11.882C90.6198 11.5345 90.9594 11.2626 91.4074 11.063C91.8624 10.8652 92.4882 10.7658 93.2754 10.7658C94.2426 10.7658 94.9809 10.9454 95.4899 11.306C95.9989 11.6679 96.2999 12.244 96.3967 13.029L94.1924 13.1582C94.1379 12.8177 94.0142 12.5687 93.8234 12.4147C93.635 12.2571 93.3735 12.1829 93.0432 12.1829C92.7734 12.1829 92.5659 12.2403 92.4226 12.356C92.2937 12.4576 92.2184 12.6134 92.2179 12.7781C92.2179 12.8998 92.2742 13.0085 92.3947 13.1051C92.5012 13.2044 92.7636 13.2977 93.1781 13.3831C94.1998 13.6046 94.9307 13.829 95.3755 14.0548C95.816 14.2815 96.138 14.5632 96.3446 14.8976C96.5409 15.2321 96.6432 15.6052 96.6432 16.0213C96.6432 16.5092 96.5102 16.9593 96.2413 17.3703C95.9663 17.7877 95.5741 18.1138 95.1145 18.3083C94.6311 18.5182 94.0226 18.6274 93.2884 18.6274C92.003 18.6274 91.1092 18.3764 90.6124 17.881C90.1113 17.3829 89.8317 16.7504 89.7656 15.9826ZM97.8119 10.8969H104.079V12.522H100.166V13.7278H103.794V15.2727H100.166V16.7695H104.191V18.4949H97.8119V10.8969ZM47.3699 8.89258H49.7096L52.7597 14.2101V8.89258H55.1138V18.4832H52.7597L49.7217 13.19V18.4832H47.3699V8.89258ZM73.0883 8.89258H79.7788V10.9449H75.6029V12.4651H79.476V14.4158H75.6029V16.3072H79.9026V18.4837H73.0883V8.89258ZM44.0733 23.8702V31.8637H42.0025V26.6363C41.6982 26.8821 41.3726 27.0999 41.0292 27.2865C40.7184 27.4567 40.3216 27.6167 39.8512 27.7693V25.9893C40.5477 25.7505 41.0916 25.4562 41.4731 25.1212C41.8648 24.7775 42.1746 24.3502 42.3789 23.8698H44.0733V23.8702ZM54.8589 24.7243C54.6374 24.4435 54.3476 24.2247 54.0172 24.0885C53.6739 23.9463 53.2124 23.8702 52.6318 23.8702C51.638 23.8702 50.8629 24.2014 50.3056 24.8614C49.7515 25.5187 49.4733 26.557 49.4733 27.9782C49.4733 28.9461 49.6031 29.7242 49.8692 30.3114C50.1348 30.9019 50.4917 31.3283 50.9364 31.5993C51.3812 31.8661 51.9702 32 52.7016 32C53.3189 32 53.8251 31.8894 54.2303 31.6697C54.6379 31.4481 54.9705 31.11 55.1855 30.6981C55.4162 30.2606 55.5344 29.7722 55.5288 29.2773C55.5288 28.5105 55.2999 27.8756 54.8468 27.3765C54.395 26.876 53.8447 26.6218 53.1849 26.6218C52.8476 26.6218 52.5532 26.6894 52.2945 26.8177C52.0093 26.9628 51.7539 27.161 51.5427 27.4012C51.6073 26.5584 51.7041 26.007 51.8399 25.7528C52.0232 25.3932 52.2819 25.2145 52.6132 25.2145C52.8002 25.2145 52.9514 25.277 53.0784 25.3992C53.2003 25.5233 53.2919 25.7384 53.3496 26.0378L55.3702 25.7724C55.2557 25.3526 55.0836 25 54.8589 24.7243ZM51.9013 28.3052C52.0767 28.0883 52.3415 27.9642 52.6201 27.9689C52.8984 27.9689 53.1273 28.0837 53.3185 28.3183C53.5055 28.5501 53.5985 28.8925 53.5985 29.3323C53.5985 29.7689 53.5074 30.095 53.3273 30.3105C53.1668 30.5208 52.9165 30.6426 52.6522 30.6393C52.3638 30.6393 52.1121 30.5171 51.9139 30.2774C51.7157 30.0362 51.6134 29.7004 51.6134 29.2726C51.6124 28.8547 51.7055 28.53 51.9013 28.3052ZM62.1045 26.2752L60.1719 25.9053C60.3291 25.2504 60.639 24.7467 61.0991 24.3922C61.5541 24.0465 62.1994 23.8693 63.0368 23.8693C63.9989 23.8693 64.6912 24.0629 65.1206 24.4412C65.5472 24.8264 65.7626 25.3083 65.7626 25.8825C65.7626 26.223 65.6756 26.5243 65.5007 26.8033C65.3276 27.0771 65.0638 27.3159 64.7135 27.5248C64.9987 27.5995 65.2155 27.6858 65.3658 27.7917C65.611 27.9475 65.8012 28.162 65.9413 28.4242C66.0729 28.6896 66.1395 28.9984 66.1395 29.3664C66.1395 29.8286 66.026 30.2652 65.804 30.6869C65.5849 31.1002 65.2471 31.4383 64.8349 31.6585C64.4134 31.8852 63.8566 31.9981 63.1694 31.9981C62.5027 31.9981 61.9742 31.9127 61.5867 31.7448C61.2121 31.5857 60.8846 31.3325 60.6366 31.0097C60.3901 30.6836 60.1947 30.2778 60.0611 29.7885L62.104 29.4951C62.1859 29.9378 62.3036 30.2456 62.4762 30.4136C62.6479 30.5866 62.8596 30.6696 63.1233 30.6696C63.389 30.6748 63.6416 30.5554 63.8072 30.3469C63.9905 30.1337 64.0803 29.8468 64.0803 29.4858C64.0803 29.121 63.9952 28.8407 63.8147 28.6387C63.6398 28.4386 63.4016 28.3374 63.0978 28.3374C62.9363 28.3374 62.7163 28.3803 62.4311 28.4666L62.5376 26.9021C62.6544 26.9175 62.7409 26.9245 62.8056 26.9245C63.0754 26.9245 63.3025 26.8364 63.4844 26.6531C63.6612 26.4735 63.7542 26.2594 63.7542 26.0103C63.7542 25.7757 63.6826 25.584 63.5495 25.4431C63.4197 25.3036 63.2313 25.2327 62.9982 25.2327C62.76 25.2327 62.5576 25.3078 62.4064 25.4622C62.2585 25.6175 62.1533 25.8909 62.1045 26.2752ZM0.0576172 26.1442H1.63152L2.20329 29.142L3.03374 26.1442H4.6002L5.43157 29.1369L6.0094 26.1442H7.57818L6.39229 31.5307H4.76163L3.8158 28.1392L2.87789 31.5307H1.25142L0.0576172 26.1442ZM11.0512 26.1442H12.6297L13.1973 29.142L14.0278 26.1442H15.5891L16.4233 29.1369L17.0039 26.1442H18.5703L17.3845 31.5307H15.7547L14.8108 28.1392L13.8742 31.5307H12.2454L11.0512 26.1442ZM22.0452 26.1442H23.62L24.1913 29.142L25.0218 26.1442H26.5831L27.4145 29.1369L27.9942 26.1442H29.563L28.378 31.5307H26.7483L25.8043 28.1392L24.8636 31.5307H23.2385L22.0452 26.1442ZM33.9809 28.0776H35.579V29.5744H33.9809V28.0776ZM70.9524 28.0776H72.5467V29.5744H70.9524V28.0776ZM81.4216 29.3202L82.882 29.7629C82.7806 30.1738 82.6266 30.5166 82.4135 30.7891C82.2102 31.061 81.9399 31.276 81.63 31.4132C81.3202 31.5536 80.9247 31.6245 80.439 31.6245C79.857 31.6245 79.3769 31.5372 79.0065 31.3684C78.6376 31.1972 78.3161 30.8977 78.0444 30.4723C77.7765 30.0418 77.6406 29.4914 77.6406 28.8248C77.6406 27.9321 77.8821 27.2473 78.3543 26.7701C78.8265 26.2892 79.4964 26.0513 80.3646 26.0513C81.0448 26.0513 81.5765 26.1899 81.9687 26.4623C82.3553 26.738 82.6405 27.1592 82.8327 27.7245L81.362 28.0557C81.3276 27.9269 81.2727 27.8047 81.1992 27.6937C81.1113 27.5696 80.9945 27.4684 80.8596 27.3984C80.7191 27.3275 80.5637 27.2926 80.4064 27.2958C80.0282 27.2958 79.7379 27.4456 79.5351 27.7501C79.3829 27.9726 79.3062 28.3281 79.3062 28.8099C79.3062 29.4056 79.3992 29.8146 79.5774 30.0371C79.7593 30.2587 80.0161 30.3711 80.3441 30.3711C80.6642 30.3711 80.9024 30.2778 81.0662 30.1015C81.2276 29.9201 81.3481 29.6607 81.4216 29.3202ZM87.7102 30.414C87.9568 30.8315 88.2787 31.1408 88.6742 31.3339C89.0748 31.5284 89.5749 31.624 90.1815 31.624C90.7785 31.624 91.2767 31.5102 91.6773 31.2877C92.0686 31.0708 92.3863 30.7424 92.5906 30.3436C92.8041 29.9438 92.9088 29.4252 92.9088 28.7945C92.9088 27.9293 92.6673 27.2557 92.183 26.7729C91.6996 26.292 91.0125 26.0499 90.1155 26.0499C89.2441 26.0499 88.5602 26.2962 88.0712 26.7851C87.5813 27.2748 87.3413 27.9591 87.3413 28.8398C87.3422 29.4727 87.4636 29.9956 87.7102 30.414ZM89.3074 27.6746C89.5107 27.4386 89.7777 27.3201 90.1108 27.3201C90.4593 27.3201 90.7375 27.4358 90.9399 27.6694C91.1423 27.9031 91.2428 28.2744 91.2428 28.781C91.2428 29.3808 91.1465 29.7978 90.9506 30.0306C90.7584 30.2652 90.4802 30.38 90.1234 30.38C89.7819 30.38 89.5028 30.2629 89.3046 30.0241C89.1064 29.7862 89.004 29.3976 89.004 28.8542C89.0059 28.3052 89.1078 27.9097 89.3074 27.6746ZM101.862 26.0583C101.317 26.0583 100.987 26.3723 100.791 26.6405C100.541 26.2794 100.23 26.0583 99.6715 26.0583C99.2848 26.0583 98.9699 26.202 98.7163 26.4562V26.1833H97.3043V31.2947H98.7633V28.2255C98.7633 27.5057 99.0815 27.5057 99.2202 27.5057C99.5942 27.5057 99.6538 27.7282 99.6538 28.2604V31.2942H101.113V28.2707C101.113 27.5057 101.487 27.5057 101.629 27.5057C101.876 27.5057 102.001 27.7506 102.001 28.2338V31.2942H103.46V27.8355C103.459 26.7575 102.832 26.0583 101.862 26.0583Z" fill="white"/>
</svg>
